<svg width="579" height="85" viewBox="0 0 579 85" fill="none" xmlns="http://www.w3.org/2000/svg">
<g filter="url(#filter0_d_94_137)">
<path d="M281.771 44.2486C280.16 44.2486 279.045 43.915 278.426 43.2477C277.808 42.5803 277.499 41.734 277.499 40.7086C277.499 40.0087 277.621 39.2519 277.865 38.4381C278.109 37.6406 278.418 36.8674 278.793 36.1187C279.167 35.3538 279.582 34.6214 280.038 33.9215C280.477 33.2053 280.917 32.6031 281.356 32.1148C281.177 32.0335 281.006 31.9521 280.843 31.8707C280.664 31.8056 280.575 31.6673 280.575 31.4557C280.575 31.4231 280.599 31.3336 280.648 31.1871C280.713 31.0406 280.811 30.829 280.941 30.5523C281.185 29.999 281.462 29.3886 281.771 28.7213C282.129 27.9238 282.552 27.0367 283.041 26.0602C283.122 25.8323 283.277 25.7184 283.505 25.7184C283.635 25.7184 283.83 25.7835 284.09 25.9137C284.888 26.4508 285.677 27.0774 286.459 27.7936C287.24 28.4934 287.956 29.3235 288.607 30.2838C289.242 31.2441 289.746 32.3102 290.121 33.482C290.511 34.6539 290.707 35.956 290.707 37.3883C290.707 37.5999 290.69 37.8521 290.658 38.1451C290.642 38.4381 290.552 38.8206 290.389 39.2926C290.243 39.7483 290.023 40.3261 289.73 41.026C289.437 41.7096 289.03 42.5641 288.509 43.5895C288.363 43.8499 288.216 44.0289 288.07 44.1266C287.907 44.2079 287.606 44.2486 287.167 44.2486H281.771ZM287.24 37.8521C287.061 37.3639 286.589 36.5826 285.824 35.5084C285.075 34.4505 283.968 33.5227 282.504 32.7252C282.194 33.246 281.901 33.832 281.625 34.483C281.364 35.134 281.234 35.72 281.234 36.2408C281.234 36.7291 281.38 37.1197 281.673 37.4127C281.95 37.7057 282.471 37.8521 283.236 37.8521H287.24Z" fill="white"/>
<path d="M302.059 28.2574C303.003 28.2574 303.874 28.6318 304.672 29.3805C305.469 30.1292 306.145 31.0488 306.698 32.1393C307.251 33.2298 307.699 34.4016 308.041 35.6549C308.366 36.8919 308.529 37.9986 308.529 38.9752C308.529 39.9518 308.374 40.9283 308.065 41.9049C307.756 42.8977 307.357 43.8987 306.869 44.9078C306.38 45.9332 305.803 46.9505 305.135 47.9596C304.468 48.9524 303.768 49.8476 303.036 50.6451C302.303 51.4426 301.595 52.1018 300.912 52.6227C300.212 53.1272 299.642 53.3795 299.203 53.3795C298.942 53.3795 298.389 53.2574 297.543 53.0133C296.696 52.7691 295.752 52.468 294.711 52.11C293.653 51.7519 292.627 51.4101 291.634 51.0846C290.642 50.7428 289.828 50.4661 289.193 50.2545C288.754 50.1568 288.534 49.929 288.534 49.5709C288.534 49.2291 288.713 49.0582 289.071 49.0582C289.51 49.1884 289.95 49.2779 290.389 49.3268C290.845 49.3593 291.317 49.3756 291.805 49.3756C293.172 49.3756 294.58 49.1477 296.029 48.692C297.478 48.22 298.861 47.5852 300.179 46.7877C301.481 45.9902 302.645 45.0543 303.671 43.9801C304.696 42.9221 305.518 41.7909 306.136 40.5865C306.136 40.4075 306.088 40.2203 305.99 40.025C305.908 39.8134 305.843 39.6018 305.795 39.3902C305.583 40.497 305.03 41.3596 304.134 41.9781C303.239 42.5966 302.287 42.9059 301.278 42.9059C299.634 42.9059 298.462 42.3606 297.762 41.2701C297.079 40.1959 296.737 38.9182 296.737 37.4371C296.737 36.428 296.883 35.3782 297.176 34.2877C297.453 33.1972 297.836 32.2044 298.324 31.3092C298.812 30.4303 299.382 29.6979 300.033 29.1119C300.684 28.5423 301.359 28.2574 302.059 28.2574ZM298.934 36.4605C299.732 36.8512 300.619 37.0465 301.595 37.0465C302.572 37.0465 303.443 36.8919 304.208 36.5826C303.85 36.0455 303.402 35.5979 302.865 35.2398C302.328 34.898 301.799 34.7271 301.278 34.7271C300.822 34.7271 300.399 34.8574 300.008 35.1178C299.602 35.3782 299.243 35.8258 298.934 36.4605Z" fill="white"/>
<path d="M322.225 44.2486C321.818 45.274 321.273 46.2994 320.589 47.3248C319.89 48.3339 319.165 49.2779 318.417 50.1568C317.652 51.0195 316.903 51.7193 316.171 52.2564C315.438 52.7773 314.828 53.0377 314.339 53.0377C314.079 53.0377 313.501 52.8993 312.606 52.6227C311.727 52.3297 310.742 51.996 309.652 51.6217C308.561 51.2473 307.495 50.8648 306.454 50.4742C305.412 50.0999 304.574 49.7988 303.939 49.5709C303.5 49.4895 303.28 49.2698 303.28 48.9117C303.28 48.5536 303.459 48.3746 303.817 48.3746C304.305 48.4723 304.802 48.5374 305.306 48.5699C305.827 48.6187 306.332 48.6432 306.82 48.6432C309.44 48.6432 311.89 48.0898 314.169 46.983C316.464 45.8762 318.482 44.1835 320.223 41.9049C319.816 41.2864 319.409 40.7005 319.003 40.1471C318.612 39.5937 317.953 38.8043 317.025 37.7789L318.075 31.773C318.172 31.4638 318.311 31.3092 318.49 31.3092C318.669 31.3092 318.921 31.5126 319.247 31.9195C319.572 32.3102 319.93 32.7659 320.321 33.2867C320.695 33.7913 321.061 34.2877 321.42 34.776C321.778 35.2643 322.022 35.6223 322.152 35.8502C322.77 36.7779 323.267 37.3476 323.641 37.5592C324.016 37.7545 324.65 37.8521 325.546 37.8521H326.424V44.2486H322.225Z" fill="white"/>
<path d="M343.417 49.0602C343.4 49.1578 343.352 49.3124 343.27 49.524C343.189 49.7519 343.099 49.9391 343.002 50.0855C342.936 50.1995 342.79 50.4192 342.562 50.7447C342.351 51.0702 342.058 51.4283 341.683 51.8189C340.283 52.2258 338.876 52.7304 337.46 53.3326C336.044 53.9511 334.66 54.594 333.309 55.2613C333.358 54.9846 333.545 54.5696 333.871 54.0162C334.033 53.7232 334.196 53.4547 334.359 53.2105C334.538 52.9827 334.717 52.8036 334.896 52.6734C335.189 52.4293 335.718 52.1119 336.483 51.7213C337.248 51.3469 338.07 50.9807 338.949 50.6227C339.844 50.2646 340.699 49.9309 341.512 49.6217C342.342 49.3287 342.977 49.1415 343.417 49.0602Z" fill="white"/>
<path d="M328.304 18.3209C328.304 17.735 328.443 17.1734 328.719 16.6363C329.012 16.1155 329.338 15.7818 329.696 15.6354L345.297 8.84824C345.297 9.38535 345.134 9.9306 344.808 10.484C344.466 11.0374 344.141 11.3792 343.832 11.5094L328.304 18.3209ZM329.086 21.568L342.025 15.9527C344.125 14.9762 345.321 15.3831 345.614 17.1734C345.825 19.1591 345.858 21.1692 345.712 23.2037L345.345 22.984C345.345 22.4632 345.313 22.0318 345.248 21.69C345.101 20.7786 344.776 20.3635 344.271 20.4449C344.157 20.4775 344.027 20.5263 343.88 20.5914L342.928 20.982V21.0064L334.408 24.6441C335.01 25.2464 335.718 26.0113 336.532 26.9391C337.525 28.0296 338.469 29.2096 339.364 30.4791C340.275 31.7486 341.048 33.0507 341.683 34.3854C342.302 35.72 342.611 36.9895 342.611 38.1939C342.611 38.4055 342.603 38.6008 342.587 38.7799C342.554 38.9589 342.513 39.1624 342.464 39.3902L341.415 43.7848C341.366 43.915 341.309 44.0289 341.244 44.1266C341.179 44.2079 341.008 44.2486 340.731 44.2486H326.278C325.692 44.2486 325.212 44.0615 324.838 43.6871C324.463 43.3128 324.276 42.8326 324.276 42.2467V39.8541C324.276 39.2682 324.463 38.788 324.838 38.4137C325.212 38.0393 325.692 37.8521 326.278 37.8521H339.95C339.494 37.136 338.794 36.1757 337.85 34.9713C336.89 33.7831 335.498 32.538 333.675 31.2359C331.869 29.9339 329.956 28.941 327.938 28.2574L328.036 27.3541L329.086 21.568Z" fill="white"/>
<path d="M358.016 44.2486C357.609 45.274 357.064 46.2994 356.38 47.3248C355.681 48.3339 354.956 49.2779 354.208 50.1568C353.443 51.0195 352.694 51.7193 351.962 52.2564C351.229 52.7773 350.619 53.0377 350.13 53.0377C349.87 53.0377 349.292 52.8993 348.397 52.6227C347.518 52.3297 346.533 51.996 345.443 51.6217C344.353 51.2473 343.286 50.8648 342.245 50.4742C341.203 50.0999 340.365 49.7988 339.73 49.5709C339.291 49.4895 339.071 49.2698 339.071 48.9117C339.071 48.5536 339.25 48.3746 339.608 48.3746C340.096 48.4723 340.593 48.5374 341.097 48.5699C341.618 48.6187 342.123 48.6432 342.611 48.6432C345.231 48.6432 347.681 48.0898 349.96 46.983C352.255 45.8762 354.273 44.1835 356.014 41.9049C355.607 41.2864 355.2 40.7005 354.794 40.1471C354.403 39.5937 353.744 38.8043 352.816 37.7789L353.866 31.773C353.964 31.4638 354.102 31.3092 354.281 31.3092C354.46 31.3092 354.712 31.5126 355.038 31.9195C355.363 32.3102 355.721 32.7659 356.112 33.2867C356.486 33.7913 356.853 34.2877 357.211 34.776C357.569 35.2643 357.813 35.6223 357.943 35.8502C358.561 36.7779 359.058 37.3476 359.432 37.5592C359.807 37.7545 360.441 37.8521 361.337 37.8521H362.215V44.2486H358.016Z" fill="white"/>
<path d="M387.704 20.2965C387.687 20.3941 387.639 20.5569 387.557 20.7848C387.476 20.9964 387.386 21.1754 387.289 21.3219C387.224 21.4358 387.077 21.6555 386.849 21.9811C386.638 22.3066 386.345 22.6646 385.97 23.0553C384.571 23.4622 383.163 23.9749 381.747 24.5934C380.331 25.1956 378.947 25.8303 377.596 26.4977C377.645 26.221 377.832 25.8059 378.158 25.2525C378.321 24.9596 378.483 24.6992 378.646 24.4713C378.825 24.2271 379.004 24.04 379.183 23.9098C379.476 23.6656 380.005 23.3564 380.77 22.982C381.535 22.5914 382.357 22.2171 383.236 21.859C384.131 21.5009 384.986 21.1754 385.799 20.8824C386.63 20.5732 387.264 20.3779 387.704 20.2965Z" fill="white"/>
<path d="M375.57 30.5768C375.716 30.6093 375.79 30.7232 375.79 30.9186C375.79 30.9348 375.773 31.0162 375.741 31.1627C375.708 31.2929 375.651 31.4882 375.57 31.7486C375.537 31.83 375.505 31.9195 375.472 32.0172L375.57 30.5768ZM375.472 32.0172L374.96 33.5553C374.715 34.2389 374.463 34.9713 374.203 35.7525C373.926 36.5338 373.706 37.2337 373.544 37.8521H380.209L380.526 35.0445L384.53 30.5035C384.709 30.2919 384.888 30.1861 385.067 30.1861C385.295 30.1861 385.409 30.2919 385.409 30.5035C385.409 30.5361 385.384 30.65 385.336 30.8453C385.303 31.0406 385.246 31.3336 385.165 31.7242C385.018 32.4729 384.855 33.2949 384.676 34.19C384.497 35.248 384.27 36.4687 383.993 37.8521H389.535C389.437 37.5429 389.372 37.2499 389.339 36.9732C389.291 36.7128 389.177 36.3792 388.998 35.9723L390.536 30.2594C390.666 29.8525 390.821 29.649 391 29.649C391.26 29.649 391.48 29.8362 391.659 30.2105C391.838 30.5849 391.984 31.0732 392.098 31.6754C392.212 32.2776 392.302 32.9368 392.367 33.6529C392.432 34.3691 392.464 35.0527 392.464 35.7037C392.464 36.8593 392.351 37.7301 392.123 38.316L390.267 43.5162C390.17 43.7766 390.023 43.9638 389.828 44.0777C389.632 44.1917 389.445 44.2486 389.266 44.2486H387.142C385.938 44.2486 385.01 43.9801 384.359 43.443C383.724 42.9059 383.269 42.2223 382.992 41.3922L382.601 43.5895C382.552 43.801 382.455 43.9638 382.308 44.0777C382.145 44.1917 381.82 44.2486 381.332 44.2486H375.326C374.17 44.2486 373.348 43.9394 372.86 43.3209C372.372 42.7024 372.062 42.0595 371.932 41.3922L370.858 44.2486H362.801C362.215 44.2486 361.735 44.0615 361.361 43.6871C360.987 43.3128 360.799 42.8326 360.799 42.2467V39.8541C360.799 39.2682 360.987 38.788 361.361 38.4137C361.735 38.0393 362.215 37.8521 362.801 37.8521H369.344L370.199 34.6539L375.057 30.7232C375.236 30.6256 375.375 30.5768 375.472 30.5768H375.57L375.472 32.0172Z" fill="white"/>
<path d="M444.564 34.483C443.278 33.3925 442.147 32.302 441.171 31.2115C442.147 30.0559 443.262 28.9003 444.515 27.7447C445.801 28.8352 446.932 29.9257 447.909 31.0162C446.786 32.3183 445.671 33.4739 444.564 34.483ZM434.213 55.2105C436.703 55.2105 439.193 55.0722 441.683 54.7955C442.725 51.4915 443.246 49.4732 443.246 48.7408C443.246 45.567 441.724 43.4348 438.68 42.3443C436.597 41.6282 433.033 41.2701 427.987 41.2701C422.014 41.2701 416.122 41.8642 410.311 43.0523C404.582 44.2079 401.717 45.3717 401.717 46.5436C401.717 47.1946 402.515 48.0572 404.11 49.1314C404.891 49.6686 405.925 50.2382 407.211 50.8404C408.513 51.4426 410.132 52.053 412.069 52.6715C414.022 53.29 416.952 53.8678 420.858 54.4049C424.781 54.942 429.232 55.2105 434.213 55.2105ZM469.833 43.8092C469.816 44.2324 469.776 44.6555 469.711 45.0787V45.1764H469.686C469.637 45.5507 469.572 45.9251 469.491 46.2994C469.475 46.3971 469.45 46.5029 469.418 46.6168C469.108 47.7236 468.807 48.5618 468.514 49.1314C468.238 49.7174 467.961 50.2219 467.684 50.6451C467.424 51.0683 467.18 51.4182 466.952 51.6949C466.773 51.9228 466.382 52.3297 465.78 52.9156C465.178 53.4853 464.323 54.1282 463.216 54.8443L463.119 54.8932C461.963 55.6256 460.498 56.3824 458.724 57.1637C456.95 57.9612 454.794 58.6936 452.255 59.3609C449.715 60.0283 446.778 60.5735 443.441 60.9967C442.855 61.0781 442.253 61.1432 441.634 61.192L439.388 66.4166C437.761 70.2089 436.719 72.1051 436.263 72.1051C436.068 72.1051 435.97 71.9423 435.97 71.6168C435.97 71.2424 437.248 67.8245 439.803 61.3629C437.411 61.5419 434.815 61.6314 432.015 61.6314C428.044 61.6314 424.471 61.4361 421.297 61.0455C418.124 60.6549 415.349 60.2317 412.972 59.776C410.596 59.3365 408.635 58.8564 407.089 58.3355C405.542 57.8147 404.427 57.3997 403.744 57.0904C403.467 56.9765 402.946 56.7405 402.181 56.3824C400.391 55.3245 399.097 54.1445 398.299 52.8424C397.6 51.7356 397.25 50.6451 397.25 49.5709C397.25 49.3919 397.258 49.221 397.274 49.0582C397.274 44.7451 400.285 41.3515 406.307 38.8775C412.053 36.5175 419.605 35.3375 428.964 35.3375C436.32 35.3375 441.171 35.9316 443.514 37.1197C445.858 38.2916 447.03 40.2691 447.03 43.0523C447.03 44.4521 446.721 46.2343 446.102 48.399C445.646 49.929 445.174 51.4589 444.686 52.9889L444.222 54.4781C446.973 54.2014 449.227 53.8678 450.985 53.4771C453.231 52.9726 455.225 52.4192 456.966 51.817C458.089 51.4426 459.115 51.0602 460.043 50.6695C460.515 50.4742 460.97 50.2789 461.41 50.0836C462.63 49.5139 463.607 49.0012 464.339 48.5455C465.088 48.1061 465.731 47.5852 466.268 46.983C466.74 46.4622 466.976 45.9495 466.976 45.4449C466.976 45.3798 466.968 45.3066 466.952 45.2252C466.594 43.4511 466.146 41.9049 465.609 40.5865C465.088 39.2844 464.421 37.9173 463.607 36.485L465.609 30.8941C465.755 30.5849 465.91 30.4303 466.073 30.4303C466.252 30.4303 466.415 30.5605 466.561 30.8209C466.903 31.4394 467.269 32.1718 467.66 33.0182C468.034 33.8645 468.384 34.7923 468.71 35.8014C468.84 36.2245 468.962 36.6803 469.076 37.1686C469.206 37.6568 469.393 38.5113 469.637 39.732C469.8 40.5947 469.881 41.5224 469.881 42.5152C469.881 42.9384 469.865 43.3697 469.833 43.8092Z" fill="white"/>
<path d="M477.157 37.8521H480.746V44.2486H473.47L471.615 22.5934L474.618 17.3932C474.699 17.2141 474.829 17.1246 475.008 17.1246C475.236 17.1246 475.375 17.2955 475.423 17.6373L477.157 37.8521Z" fill="white"/>
<path d="M489.364 24.9859C488.078 23.8954 486.947 22.8049 485.97 21.7145C486.947 20.5589 488.062 19.4033 489.315 18.2477C490.601 19.3382 491.732 20.4286 492.709 21.5191C491.586 22.8212 490.471 23.9768 489.364 24.9859ZM504.818 40.7086C503.711 40.6272 502.718 40.5377 501.839 40.44C501.074 40.3587 500.366 40.2936 499.715 40.2447C499.081 40.1959 498.739 40.1715 498.69 40.1715C497.323 40.1715 495.988 40.4726 494.686 41.0748C493.4 41.677 492.139 42.3362 490.902 43.0523C490.495 43.2802 489.925 43.5325 489.193 43.8092C488.461 44.1021 487.451 44.2486 486.166 44.2486H481.429C480.843 44.2486 480.363 44.0615 479.989 43.6871C479.615 43.3128 479.427 42.8326 479.427 42.2467V39.8541C479.427 39.2682 479.615 38.788 479.989 38.4137C480.363 38.0393 480.843 37.8521 481.429 37.8521H488.9C489.47 37.8521 489.901 37.8277 490.194 37.7789C490.487 37.7301 490.739 37.665 490.951 37.5836C491.439 37.4046 491.846 37.2581 492.172 37.1441C492.481 37.0302 492.896 36.843 493.417 36.5826C492.359 36.2245 491.439 35.8909 490.658 35.5816C489.877 35.2724 489.152 35.0038 488.485 34.776C487.818 34.5644 487.191 34.3854 486.605 34.2389C486.003 34.1087 485.319 34.0436 484.554 34.0436C484.294 34.0436 484.017 34.0598 483.724 34.0924C483.431 34.1087 483.114 34.1412 482.772 34.19C482.495 34.19 482.357 34.0761 482.357 33.8482C482.357 33.7994 482.422 33.6855 482.552 33.5064C482.699 33.3111 482.902 33.0507 483.163 32.7252C483.7 32.0579 484.611 30.8535 485.897 29.1119C486.255 28.6725 486.621 28.2981 486.996 27.9889C487.37 27.6796 487.826 27.525 488.363 27.525C489.112 27.525 489.966 27.8993 490.926 28.648C491.887 29.3967 493.067 30.2431 494.466 31.1871C495.866 32.1148 497.543 32.9937 499.496 33.8238C501.449 34.6376 503.801 35.134 506.551 35.3131C506.909 35.3131 507.089 35.4677 507.089 35.777C507.089 35.8095 507.056 35.8909 506.991 36.0211C506.942 36.1513 506.853 36.3385 506.722 36.5826C506.478 37.0709 506.226 37.6243 505.965 38.2428C505.607 38.9589 505.225 39.7809 504.818 40.7086Z" fill="white"/>
<path d="M525.472 39.317C525.472 40.733 525.106 42.2874 524.374 43.9801C523.641 45.6728 522.754 47.2434 521.713 48.692C520.655 50.1243 519.589 51.3287 518.514 52.3053C517.424 53.2818 516.545 53.7701 515.878 53.7701C515.601 53.7701 515.039 53.6318 514.193 53.3551C513.363 53.0621 512.443 52.7122 511.434 52.3053C510.441 51.9146 509.457 51.5322 508.48 51.1578C507.504 50.7672 506.698 50.4661 506.063 50.2545C505.624 50.1568 505.404 49.929 505.404 49.5709C505.404 49.2291 505.583 49.0582 505.941 49.0582C506.429 49.1396 506.918 49.2128 507.406 49.2779C507.894 49.343 508.382 49.3756 508.871 49.3756C511.54 49.3756 514.071 48.6676 516.464 47.2516C518.872 45.8193 521.029 43.7766 522.933 41.1236C522.445 40.1796 521.932 39.3984 521.395 38.7799C520.874 38.1614 520.231 37.4046 519.466 36.5094L520.467 30.65C520.565 30.2919 520.703 30.1129 520.882 30.1129C521.045 30.1129 521.151 30.1617 521.2 30.2594C521.639 30.7477 522.111 31.3255 522.616 31.9928C523.104 32.6601 523.552 33.3681 523.959 34.1168C524.382 34.8655 524.74 35.6874 525.033 36.5826C525.326 37.4778 525.472 38.3893 525.472 39.317Z" fill="white"/>
<path d="M540.487 49.0602C540.471 49.1578 540.422 49.3124 540.34 49.524C540.259 49.7519 540.17 49.9391 540.072 50.0855C540.007 50.1995 539.86 50.4192 539.632 50.7447C539.421 51.0702 539.128 51.4283 538.754 51.8189C537.354 52.2258 535.946 52.7304 534.53 53.3326C533.114 53.9511 531.73 54.594 530.38 55.2613C530.428 54.9846 530.616 54.5696 530.941 54.0162C531.104 53.7232 531.267 53.4547 531.429 53.2105C531.608 52.9827 531.787 52.8036 531.966 52.6734C532.259 52.4293 532.788 52.1119 533.553 51.7213C534.318 51.3469 535.14 50.9807 536.019 50.6227C536.914 50.2646 537.769 49.9309 538.583 49.6217C539.413 49.3287 540.047 49.1415 540.487 49.0602Z" fill="white"/>
<path d="M544.369 37.0709C544.369 37.1197 544.336 37.2174 544.271 37.3639C544.222 37.5104 544.149 37.7138 544.051 37.9742C543.824 38.4788 543.579 39.0484 543.319 39.6832C543.042 40.3017 542.782 40.8876 542.538 41.441C542.294 41.9944 542.147 42.3362 542.098 42.4664C542.017 42.6943 541.911 42.8814 541.781 43.0279C541.651 43.1907 541.407 43.2721 541.048 43.2721H532.04C531.372 43.2721 530.843 43.1419 530.453 42.8814C530.046 42.6048 529.842 42.0921 529.842 41.3434V35.6061C529.842 35.3456 529.875 35.1747 529.94 35.0934C530.005 35.0283 530.087 34.9957 530.184 34.9957C530.396 34.9957 530.55 35.1015 530.648 35.3131C530.729 35.5084 530.835 35.72 530.965 35.9479C531.112 36.1594 531.315 36.371 531.576 36.5826C531.836 36.7779 532.235 36.8756 532.772 36.8756H540.975C540.259 35.6712 539.437 34.4993 538.509 33.36C537.582 32.2369 536.223 30.9592 534.432 29.527L536.044 23.5943C536.092 23.3827 536.206 23.277 536.385 23.277C536.564 23.277 536.719 23.3421 536.849 23.4723C538.314 24.8883 539.535 26.2962 540.511 27.6959C541.488 29.0956 542.261 30.3977 542.831 31.6021C543.417 32.8066 543.824 33.8889 544.051 34.8492C544.263 35.7932 544.369 36.5338 544.369 37.0709Z" fill="white"/>
<path d="M551.62 37.8521H555.209V44.2486H547.933L546.078 22.5934L549.081 17.3932C549.162 17.2141 549.292 17.1246 549.471 17.1246C549.699 17.1246 549.838 17.2955 549.886 17.6373L551.62 37.8521Z" fill="white"/>
<path d="M561.019 24.3512C559.733 23.2607 558.602 22.1702 557.626 21.0797C558.602 19.9241 559.717 18.7685 560.97 17.6129C562.256 18.7034 563.387 19.7939 564.364 20.8844C563.241 22.1865 562.126 23.3421 561.019 24.3512ZM569.906 36.1187C569.906 36.5094 569.825 37.0058 569.662 37.608C569.515 38.2102 569.32 38.845 569.076 39.5123C568.832 40.1796 568.571 40.8551 568.295 41.5387C568.034 42.2385 567.814 42.8733 567.635 43.443C567.505 43.9801 567.106 44.2486 566.439 44.2486H555.233C554.647 44.2486 554.167 44.0615 553.793 43.6871C553.418 43.3128 553.231 42.8326 553.231 42.2467V39.8541C553.231 39.2682 553.418 38.788 553.793 38.4137C554.167 38.0393 554.647 37.8521 555.233 37.8521H566.439C566.341 37.3639 566.203 36.8593 566.024 36.3385C565.845 35.8339 565.666 35.3619 565.487 34.9225C565.324 34.4342 565.104 33.9459 564.828 33.4576L566.83 27.9156C566.96 27.5576 567.115 27.3785 567.294 27.3785C567.473 27.3785 567.627 27.4924 567.757 27.7203C567.985 28.1109 568.221 28.6236 568.465 29.2584C568.71 29.8769 568.946 30.5768 569.173 31.358C569.385 32.123 569.556 32.9205 569.686 33.7506C569.833 34.5644 569.906 35.3538 569.906 36.1187Z" fill="white"/>
<path d="M24.9723 25.3473C26.0302 26.5842 27.1451 27.6178 28.317 28.4479C28.317 28.4479 28.317 28.6676 28.317 29.107C27.6171 29.8395 26.5348 30.9218 25.0699 32.3541C24.9072 32.4192 24.7281 32.3948 24.5328 32.2809C24.3538 32.1669 24.1829 32.053 24.0201 31.9391C23.1901 31.2392 22.2867 30.344 21.3102 29.2535C21.2451 29.0582 21.2939 28.8873 21.4567 28.7408C21.6357 28.5781 21.8066 28.4316 21.9694 28.3014C22.3437 27.927 22.8239 27.3736 23.4098 26.6412C23.7516 26.3157 24.2724 25.8844 24.9723 25.3473ZM16.818 39.7516L16.8668 39.8492C19.471 37.3753 21.8229 36.2604 23.9225 36.5045C24.9804 36.6347 25.7617 37.1962 26.2662 38.1891C26.3313 38.5634 26.3639 38.9296 26.3639 39.2877C26.3639 40.9967 25.485 42.8847 23.7272 44.9518C22.5553 46.3189 21.1393 47.3362 19.4791 48.0035C16.9075 48.7034 14.3522 49.0533 11.8131 49.0533C10.9505 49.0533 10.0878 49.0045 9.22522 48.9068C8.98108 48.9068 8.71252 48.7848 8.41956 48.5406C8.387 48.4755 8.39514 48.3779 8.44397 48.2477C8.4928 48.1174 8.51721 48.0361 8.51721 48.0035C8.7939 47.8082 9.17639 47.6373 9.66467 47.4908C10.2994 47.3281 10.6982 47.2141 10.861 47.149C11.5608 46.5468 12.7653 45.0982 14.4742 42.8033C15.0765 41.0292 15.4264 38.8971 15.524 36.4068C15.524 34.2747 15.5403 32.1181 15.5729 29.9371C15.6054 28.5374 15.638 27.691 15.6705 27.398C15.7682 26.4703 16.0205 25.7053 16.4274 25.1031C16.525 24.859 17.1435 23.4267 18.2828 20.8062C18.3479 20.5947 18.4781 20.4726 18.6735 20.44C18.8688 20.3749 18.999 20.4482 19.0641 20.6598C19.0966 20.9202 19.0559 21.3189 18.942 21.8561C18.8281 22.3769 18.7711 22.7431 18.7711 22.9547C18.5433 24.6148 18.3968 26.7307 18.3317 29.3023C18.1852 32.2971 18.0631 34.3967 17.9655 35.6012C17.7701 36.4964 17.3877 37.8798 16.818 39.7516ZM23.1656 40.4107C22.7425 39.6946 22.0914 39.426 21.2125 39.6051C19.6826 39.898 18.2177 40.8095 16.818 42.3395C15.6787 43.7392 14.5475 45.1227 13.4244 46.4898C15.0846 46.1318 16.7529 45.7656 18.4293 45.3912C20.2848 44.8216 21.7334 43.9752 22.775 42.8521C23.1982 42.0872 23.4098 41.5175 23.4098 41.1432C23.4098 40.8502 23.3284 40.6061 23.1656 40.4107Z" fill="white"/>
<path d="M45.4557 26.9098C43.3886 26.4052 41.9401 25.331 41.11 23.6871C43.1445 21.2945 44.2757 20.0169 44.5035 19.8541C45.8382 21.0097 47.2786 22.1083 48.8248 23.15L45.4557 26.9098ZM54.9528 17.901C54.9528 18.0637 54.969 21.2132 55.0016 27.3492C55.0504 31.2229 54.8388 34.3886 54.3668 36.8463C54.0576 38.4739 53.2356 40.012 51.901 41.4605C50.5826 42.8928 49.1015 43.8206 47.4576 44.2437C46.302 44.553 44.9837 44.5693 43.5026 44.2926C42.4446 45.5621 41.6634 46.4329 41.1588 46.9049C40.166 47.8652 39.1975 48.5325 38.2535 48.9068C37.0328 49.4277 35.8772 49.3463 34.7867 48.6627C33.7125 47.9791 32.9557 46.8886 32.5162 45.3912C32.386 44.968 32.1337 43.6334 31.7594 41.3873L31.6129 37.4566L31.5153 29.0094C31.4827 28.4397 31.4664 27.5689 31.4664 26.3971C31.4339 25.3717 31.4827 24.5416 31.6129 23.9068C31.9384 22.9628 32.3698 21.5468 32.9069 19.6588C33.151 19.4472 33.2893 19.3414 33.3219 19.3414C33.4847 19.3414 33.6637 19.4065 33.859 19.5367C33.566 22.6129 33.4196 25.5995 33.4196 28.4967C33.4196 32.0611 33.6311 35.4791 34.0543 38.7506C34.1194 40.4758 34.9088 41.6721 36.4225 42.3395C36.8782 42.551 37.4072 42.6568 38.0094 42.6568C38.9046 42.6568 39.7916 42.4208 40.6705 41.9488C40.9635 41.7861 40.9635 41.5989 40.6705 41.3873L40.5729 41.3385L40.524 41.2896C40.2148 40.4596 40.0602 39.6132 40.0602 38.7506C40.0602 36.5859 40.9147 34.5514 42.6237 32.6471C43.3561 31.817 44.2513 31.402 45.3092 31.402C45.7161 31.402 46.0986 31.4671 46.4567 31.5973C47.4007 31.9716 47.9866 32.6227 48.2145 33.5504C48.3447 34.0549 48.4098 34.5351 48.4098 34.9908C48.4098 36.7649 47.4983 38.9215 45.6754 41.4605C46.0335 41.4605 46.4811 41.4199 47.0182 41.3385C50.3873 40.8827 52.2998 39.483 52.7555 37.1393C53.0647 35.6744 53.138 33.8596 52.9752 31.6949C52.6985 28.1305 52.5276 25.0624 52.4625 22.4908C52.43 20.9934 52.5765 19.8134 52.902 18.9508C53.1461 18.3486 53.6832 17.079 54.5133 15.1422C54.611 14.9794 54.7249 14.898 54.8551 14.898C55.0341 14.9306 55.1562 15.0283 55.2213 15.191C55.2213 15.5328 55.1888 15.9885 55.1237 16.5582C55.0097 17.2255 54.9528 17.6731 54.9528 17.901ZM43.0143 35.1373C42.054 35.7721 41.6227 36.4964 41.7203 37.3102C41.9156 39.0029 42.4772 40.0527 43.4049 40.4596C44.4791 39.8899 45.3173 39.19 45.9196 38.36C46.2451 37.6601 46.4078 37.0742 46.4078 36.6021C46.4078 36.2278 46.3265 35.9104 46.1637 35.65C45.7893 35.0152 45.2197 34.6979 44.4547 34.6979C43.9339 34.6979 43.4537 34.8443 43.0143 35.1373Z" fill="white"/>
<path d="M63.1071 22.5396C62.9931 23.1419 62.8711 24.0289 62.7408 25.2008C62.6106 26.6982 62.5293 28.7652 62.4967 31.402C62.4967 34.4293 62.4642 36.5452 62.399 37.7496C62.2688 40.3212 61.569 43.0068 60.2994 45.8062C60.0553 46.3271 59.8356 46.5875 59.6403 46.5875C59.5426 46.5875 59.4449 46.5549 59.3473 46.4898C59.1194 46.3596 59.038 46.0585 59.1031 45.5865C59.3636 44.6913 59.5752 42.4452 59.7379 38.8482C59.5101 35.9511 59.4287 32.704 59.4938 29.107C60.0309 27.3004 60.9668 25.0624 62.3014 22.3932C62.6269 22.1979 62.8955 22.2467 63.1071 22.5396Z" fill="white"/>
<path d="M87.4479 36.0406C87.7571 36.8382 87.9117 37.7089 87.9117 38.6529C87.9117 40.0527 87.5455 41.721 86.8131 43.6578C85.4134 47.385 83.566 49.2161 81.2711 49.151C80.2295 48.9882 79.4889 48.3372 79.0494 47.1979C78.9843 46.7584 78.9518 46.3108 78.9518 45.8551C78.9518 44.7483 79.5052 42.5429 80.6119 39.2389C80.4166 39.2063 80.1318 39.0761 79.7574 38.8482C79.9853 37.8229 80.205 36.9358 80.4166 36.1871C80.5143 35.4547 80.7096 34.4212 81.0026 33.0865C81.2793 32.9238 82.028 32.9075 83.2487 33.0377C85.1855 33.2493 86.5852 34.2503 87.4479 36.0406ZM84.9088 40.8014C84.274 39.9387 83.3382 39.4749 82.1012 39.4098C81.0758 41.4768 80.6445 43.3242 80.8073 44.9518C81.0026 45.5865 81.3362 45.9853 81.8082 46.148C81.971 46.1806 82.1419 46.1969 82.3209 46.1969C82.972 46.1969 83.8997 45.5947 85.1041 44.3902C85.3483 43.9345 85.4703 43.4381 85.4703 42.901C85.4703 42.136 85.2832 41.4361 84.9088 40.8014ZM89.9869 16.7535C89.7265 17.551 89.0836 18.9182 88.0582 20.8551C87.8792 20.8551 87.6432 20.8551 87.3502 20.8551C86.2434 20.8876 85.3076 21.4817 84.5426 22.6373C83.9404 23.6464 83.3626 24.6474 82.8092 25.6402C81.735 27.512 80.3352 28.4316 78.61 28.399C78.3984 28.3339 78.1298 28.2037 77.8043 28.0084C78.1624 26.9342 78.7402 25.5833 79.5377 23.9557C80.0423 23.9557 80.7666 23.8173 81.7106 23.5406C82.7685 23.0849 83.7939 21.734 84.7867 19.4879C85.7308 17.5348 86.9677 16.4687 88.4977 16.2896C89.3278 16.2896 89.8242 16.4443 89.9869 16.7535Z" fill="white"/>
<path d="M170.651 11.4068C168.584 10.9348 167.135 9.86875 166.305 8.20859C168.372 5.83229 169.512 4.56276 169.723 4.4C171.042 5.57187 172.474 6.67051 174.02 7.6959L170.651 11.4068ZM175.119 24.1998C171.977 25.5019 169.089 27.3655 166.452 29.7906C164.922 30.7997 163.595 31.3043 162.472 31.3043C161.74 31.3043 161.105 31.1171 160.568 30.7428C160.438 30.6451 160.137 30.3766 159.665 29.9371C158.07 30.9462 155.75 32.2646 152.707 33.8922C147.482 36.301 142.599 38.0507 138.058 39.1412C134.168 40.1503 129.668 40.6874 124.557 40.7525C118.258 40.8176 111.691 39.7678 104.855 37.6031C104.253 38.6936 103.455 40.4758 102.463 42.9498C101.6 45.0494 100.9 46.5305 100.363 47.3932C100.07 47.735 99.069 48.1337 97.36 48.5895C96.0905 48.7685 94.178 49.0208 91.6227 49.3463C91.4762 49.3463 91.2727 49.2486 91.0123 49.0533C90.8821 48.8092 90.9635 48.5243 91.2565 48.1988C93.0957 47.206 95.7649 45.6191 99.2643 43.4381C101.299 42.0383 103.284 38.4413 105.221 32.6471C105.384 32.11 105.579 31.874 105.807 31.9391C106.816 32.2158 108.533 32.6878 110.959 33.3551C113.026 33.8434 115.312 34.2584 117.819 34.6002C119.821 34.8606 122.051 35.0641 124.508 35.2105C129.31 35.4384 133.647 35.235 137.521 34.6002C144.845 33.3958 150.729 31.6786 155.172 29.4488C155.84 29.1233 156.922 28.456 158.42 27.4469C159.477 26.7796 160.006 26.4459 160.006 26.4459C160.706 27.6178 161.471 28.22 162.301 28.2525C163.88 28.3176 165.369 27.9189 166.769 27.0562C167.534 26.5191 169.145 25.3961 171.603 23.6871C171.538 23.6546 169.821 22.3281 166.452 19.7076C166.159 19.4309 165.793 19.2926 165.353 19.2926C164.93 19.2926 164.434 19.4635 163.864 19.8053C163.734 19.9029 163.254 20.2854 162.423 20.9527C162.114 21.0178 161.862 20.8795 161.667 20.5377C161.732 20.1471 161.919 19.7727 162.228 19.4146C162.554 19.0403 162.863 18.6985 163.156 18.3893C164.588 17.2011 165.776 16.607 166.72 16.607C167.811 16.607 169.325 17.5022 171.261 19.2926C172.368 20.0901 174.085 21.1725 176.413 22.5396C176.51 22.7187 176.575 23.0035 176.608 23.3941C176.185 23.7034 175.688 23.9719 175.119 24.1998ZM137.521 51.8365C136.317 51.2831 134.966 50.3391 133.468 49.0045L130.905 51.8365C128.87 51.3808 127.422 50.2984 126.559 48.5895C128.594 46.1643 129.709 44.8541 129.904 44.6588C131.043 45.6516 132.345 46.6445 133.81 47.6373L136.862 44.4879C138.799 46.0992 140.247 47.2385 141.208 47.9059C139.515 49.6962 138.286 51.0064 137.521 51.8365Z" fill="white"/>
<path d="M187.106 21.0016L187.399 21.0992C188.343 21.9944 189.499 22.9465 190.866 23.9557C190.654 24.4114 190.321 24.9322 189.865 25.5182C189.425 26.1041 188.986 26.6493 188.547 27.1539C188.384 27.3167 188.213 27.5038 188.034 27.7154C187.855 27.9107 187.643 27.9758 187.399 27.9107C186.569 27.4713 185.95 26.9505 185.544 26.3482C184.99 26.0553 184.445 25.5751 183.908 24.9078C184.998 23.329 186.064 22.027 187.106 21.0016ZM188.449 31.9879C190.093 33.1923 190.915 34.8769 190.915 37.0416C190.915 38.4088 190.508 39.9632 189.694 41.7047C188.962 43.1695 188.213 44.6181 187.448 46.0504C186.992 46.9781 185.861 47.5478 184.054 47.7594C182.915 48.0198 181.165 48.3534 178.805 48.7604C178.74 48.7929 178.626 48.6546 178.464 48.3453C178.659 47.9221 179.058 47.6048 179.66 47.3932C180.685 47.0025 181.198 46.8072 181.198 46.8072C182.663 46.1399 184.779 44.9843 187.546 43.3404C188.115 42.7057 188.319 41.9081 188.156 40.9479C188.026 39.3854 186.862 38.0344 184.665 36.8951C184.632 36.7649 184.616 36.6184 184.616 36.4557C184.616 36.1464 184.73 35.7314 184.958 35.2105C185.186 34.6734 185.316 34.2991 185.348 34.0875C185.592 33.5016 185.991 32.6552 186.545 31.5484C186.691 31.288 186.862 31.1578 187.057 31.1578C187.22 31.1578 187.472 31.288 187.814 31.5484C188.172 31.8089 188.384 31.9553 188.449 31.9879Z" fill="white"/>
<path d="M214.938 39.6539C214.71 41.2815 213.848 43.4462 212.35 46.148C211.943 46.8805 211.243 47.3769 210.251 47.6373C209.421 47.8489 208.566 48.0686 207.687 48.2965C207.052 48.4918 206.092 48.7766 204.806 49.151C204.497 49.151 204.31 49.0533 204.245 48.858C204.245 48.6139 204.464 48.3616 204.904 48.1012C206.239 47.3036 207.573 46.5224 208.908 45.7574C210.373 44.8134 211.618 43.8613 212.643 42.901C212.952 42.4941 213.05 41.9407 212.936 41.2408C212.741 40.7525 212.513 40.4189 212.253 40.2398C211.911 40.3049 211.593 40.3375 211.3 40.3375C210.096 40.3375 209.193 39.9225 208.59 39.0924C208.363 38.7018 208.249 38.2867 208.249 37.8473C208.249 37.3753 208.395 36.7893 208.688 36.0895C208.965 35.5686 209.217 35.0152 209.445 34.4293C209.673 33.8434 209.893 33.2167 210.104 32.5494C210.462 31.817 210.942 31.3368 211.545 31.109C212.651 30.8974 213.538 31.345 214.206 32.4518C214.938 33.6887 215.304 35.1536 215.304 36.8463C215.304 37.7415 215.182 38.6773 214.938 39.6539Z" fill="white"/>
<path d="M228.097 34.2584C228.26 34.9257 228.341 35.6093 228.341 36.3092C228.341 37.6764 227.992 39.2063 227.292 40.899C227.227 41.0292 226.527 42.4778 225.192 45.2447C225.029 45.6191 224.647 46.0911 224.045 46.6607C222.482 47.149 220.081 47.7757 216.842 48.5406C216.615 48.6871 216.452 48.5732 216.354 48.1988C216.419 48.1012 216.997 47.6699 218.088 46.9049C218.787 46.4003 220.008 45.6842 221.75 44.7564C223.312 43.9589 224.492 43.2265 225.29 42.5592C225.827 41.957 225.949 41.0536 225.656 39.8492C225.282 38.4169 224.126 37.2369 222.189 36.3092C222.059 36.1301 222.059 35.9267 222.189 35.6988C222.287 35.5035 222.393 35.3001 222.506 35.0885C222.865 33.8352 223.345 32.3215 223.947 30.5475C224.842 30.6126 225.688 31.0276 226.486 31.7926C227.186 32.4924 227.723 33.3144 228.097 34.2584Z" fill="white"/>
<path d="M233.322 48.3453C232.72 48.4755 231.735 48.6627 230.368 48.9068C230.075 48.9068 229.896 48.801 229.831 48.5895C229.798 48.2965 230.026 48.0198 230.514 47.7594C231.784 46.9456 233.053 46.1399 234.323 45.3424C235.82 44.3821 237.033 43.4869 237.961 42.6568C238.937 41.5501 239.857 39.9306 240.719 37.7984C241.354 35.9918 241.989 34.1933 242.624 32.4029C242.721 32.1262 242.941 31.9879 243.283 31.9879C243.576 31.9879 243.722 32.1262 243.722 32.4029C243.787 33.0377 243.519 34.4863 242.917 36.7486C241.891 40.6874 240.662 43.8694 239.23 46.2945C238.693 47.1897 237.806 47.7431 236.569 47.9547C235.478 48.0849 234.396 48.2151 233.322 48.3453Z" fill="white"/>
<path d="M252.121 22.5396C252.007 23.1419 251.885 24.0289 251.755 25.2008C251.624 26.6982 251.543 28.7652 251.51 31.402C251.51 34.4293 251.478 36.5452 251.413 37.7496C251.283 40.3212 250.583 43.0068 249.313 45.8062C249.069 46.3271 248.849 46.5875 248.654 46.5875C248.556 46.5875 248.459 46.5549 248.361 46.4898C248.133 46.3596 248.052 46.0585 248.117 45.5865C248.377 44.6913 248.589 42.4452 248.752 38.8482C248.524 35.9511 248.442 32.704 248.507 29.107C249.045 27.3004 249.98 25.0624 251.315 22.3932C251.641 22.1979 251.909 22.2467 252.121 22.5396Z" fill="white"/>
</g>
<defs>
<filter id="filter0_d_94_137" x="2.47955e-05" y="0" width="578.306" height="84.5051" filterUnits="userSpaceOnUse" color-interpolation-filters="sRGB">
<feFlood flood-opacity="0" result="BackgroundImageFix"/>
<feColorMatrix in="SourceAlpha" type="matrix" values="0 0 0 0 0 0 0 0 0 0 0 0 0 0 0 0 0 0 127 0" result="hardAlpha"/>
<feOffset dy="4"/>
<feGaussianBlur stdDeviation="4.2"/>
<feComposite in2="hardAlpha" operator="out"/>
<feColorMatrix type="matrix" values="0 0 0 0 0 0 0 0 0 0 0 0 0 0 0 0 0 0 1 0"/>
<feBlend mode="normal" in2="BackgroundImageFix" result="effect1_dropShadow_94_137"/>
<feBlend mode="normal" in="SourceGraphic" in2="effect1_dropShadow_94_137" result="shape"/>
</filter>
</defs>
</svg>
