<svg width="386" height="60" viewBox="0 0 386 60" fill="none" xmlns="http://www.w3.org/2000/svg">
<path d="M166.702 38C165.478 38 164.63 37.7464 164.16 37.2393C163.69 36.7321 163.455 36.0889 163.455 35.3096C163.455 34.7777 163.548 34.2025 163.733 33.584C163.919 32.9779 164.154 32.3903 164.438 31.8213C164.723 31.2399 165.038 30.6833 165.385 30.1514C165.719 29.6071 166.053 29.1494 166.387 28.7783C166.251 28.7165 166.121 28.6546 165.997 28.5928C165.861 28.5433 165.793 28.4382 165.793 28.2773C165.793 28.2526 165.812 28.1846 165.849 28.0732C165.898 27.9619 165.972 27.8011 166.071 27.5908C166.257 27.1702 166.467 26.7064 166.702 26.1992C166.974 25.5931 167.296 24.9189 167.667 24.1768C167.729 24.0036 167.846 23.917 168.02 23.917C168.118 23.917 168.267 23.9665 168.465 24.0654C169.071 24.4736 169.671 24.9499 170.265 25.4941C170.858 26.026 171.403 26.6569 171.897 27.3867C172.38 28.1165 172.763 28.9268 173.048 29.8174C173.345 30.708 173.493 31.6976 173.493 32.7861C173.493 32.9469 173.481 33.1387 173.456 33.3613C173.444 33.584 173.376 33.8747 173.252 34.2334C173.141 34.5798 172.974 35.0189 172.751 35.5508C172.528 36.0703 172.219 36.7197 171.823 37.499C171.712 37.6969 171.601 37.833 171.489 37.9072C171.366 37.9691 171.137 38 170.803 38H166.702ZM170.858 33.1387C170.722 32.7676 170.364 32.1738 169.782 31.3574C169.213 30.5534 168.372 29.8483 167.259 29.2422C167.024 29.638 166.801 30.0833 166.591 30.5781C166.393 31.0729 166.294 31.5182 166.294 31.9141C166.294 32.2852 166.405 32.582 166.628 32.8047C166.838 33.0273 167.234 33.1387 167.815 33.1387H170.858ZM182.121 25.8467C182.839 25.8467 183.5 26.1312 184.106 26.7002C184.713 27.2692 185.226 27.9681 185.646 28.7969C186.067 29.6257 186.407 30.5163 186.667 31.4688C186.914 32.4089 187.038 33.25 187.038 33.9922C187.038 34.7344 186.921 35.4766 186.686 36.2188C186.451 36.9733 186.147 37.734 185.776 38.501C185.405 39.2803 184.966 40.0534 184.459 40.8203C183.952 41.5749 183.42 42.2552 182.863 42.8613C182.307 43.4674 181.769 43.9684 181.249 44.3643C180.717 44.7477 180.284 44.9395 179.95 44.9395C179.752 44.9395 179.332 44.8467 178.688 44.6611C178.045 44.4756 177.328 44.2467 176.536 43.9746C175.732 43.7025 174.953 43.4427 174.198 43.1953C173.444 42.9355 172.825 42.7253 172.343 42.5645C172.009 42.4902 171.842 42.3171 171.842 42.0449C171.842 41.7852 171.978 41.6553 172.25 41.6553C172.584 41.7542 172.918 41.8223 173.252 41.8594C173.598 41.8841 173.957 41.8965 174.328 41.8965C175.367 41.8965 176.437 41.7233 177.538 41.377C178.639 41.0182 179.69 40.5358 180.692 39.9297C181.682 39.3236 182.566 38.6123 183.346 37.7959C184.125 36.9919 184.75 36.1322 185.22 35.2168C185.22 35.0807 185.183 34.9385 185.108 34.79C185.047 34.6292 184.997 34.4684 184.96 34.3076C184.799 35.1488 184.379 35.8044 183.698 36.2744C183.018 36.7445 182.294 36.9795 181.527 36.9795C180.278 36.9795 179.387 36.5651 178.855 35.7363C178.336 34.9199 178.076 33.9489 178.076 32.8232C178.076 32.0563 178.188 31.2585 178.41 30.4297C178.62 29.6009 178.911 28.8464 179.282 28.166C179.653 27.498 180.086 26.9414 180.581 26.4961C181.076 26.0632 181.589 25.8467 182.121 25.8467ZM179.746 32.0811C180.352 32.3779 181.026 32.5264 181.769 32.5264C182.511 32.5264 183.173 32.4089 183.754 32.1738C183.482 31.7656 183.142 31.4255 182.733 31.1533C182.325 30.8936 181.923 30.7637 181.527 30.7637C181.181 30.7637 180.859 30.8626 180.562 31.0605C180.253 31.2585 179.981 31.5986 179.746 32.0811ZM197.447 38C197.138 38.7793 196.724 39.5586 196.204 40.3379C195.672 41.1048 195.122 41.8223 194.553 42.4902C193.971 43.1458 193.402 43.6777 192.846 44.0859C192.289 44.4818 191.825 44.6797 191.454 44.6797C191.256 44.6797 190.817 44.5745 190.137 44.3643C189.469 44.1416 188.72 43.888 187.892 43.6035C187.063 43.319 186.253 43.0283 185.461 42.7314C184.669 42.4469 184.032 42.2181 183.55 42.0449C183.216 41.9831 183.049 41.8161 183.049 41.5439C183.049 41.2718 183.185 41.1357 183.457 41.1357C183.828 41.21 184.205 41.2594 184.589 41.2842C184.985 41.3213 185.368 41.3398 185.739 41.3398C187.731 41.3398 189.592 40.9193 191.324 40.0781C193.068 39.237 194.602 37.9505 195.926 36.2188C195.617 35.7487 195.307 35.3034 194.998 34.8828C194.701 34.4622 194.2 33.8623 193.495 33.083L194.293 28.5186C194.367 28.2835 194.472 28.166 194.608 28.166C194.744 28.166 194.936 28.3206 195.184 28.6299C195.431 28.9268 195.703 29.2731 196 29.6689C196.285 30.0524 196.563 30.4297 196.835 30.8008C197.107 31.1719 197.293 31.444 197.392 31.6172C197.862 32.3223 198.239 32.7552 198.523 32.916C198.808 33.0645 199.29 33.1387 199.971 33.1387H200.639V38H197.447ZM213.553 41.1768C213.54 41.251 213.503 41.3685 213.441 41.5293C213.38 41.7025 213.312 41.8447 213.237 41.9561C213.188 42.0426 213.076 42.2096 212.903 42.457C212.743 42.7044 212.52 42.9766 212.235 43.2734C211.172 43.5827 210.102 43.9661 209.025 44.4238C207.949 44.8939 206.898 45.3825 205.871 45.8896C205.908 45.6794 206.05 45.3639 206.298 44.9434C206.422 44.7207 206.545 44.5166 206.669 44.3311C206.805 44.1579 206.941 44.0218 207.077 43.9229C207.3 43.7373 207.702 43.4961 208.283 43.1992C208.865 42.9147 209.489 42.6364 210.157 42.3643C210.838 42.0921 211.487 41.8385 212.105 41.6035C212.736 41.3809 213.219 41.2386 213.553 41.1768ZM202.067 18.2949C202.067 17.8496 202.173 17.4229 202.383 17.0146C202.605 16.6188 202.853 16.3652 203.125 16.2539L214.981 11.0957C214.981 11.5039 214.858 11.9183 214.61 12.3389C214.351 12.7594 214.103 13.0192 213.868 13.1182L202.067 18.2949ZM202.661 20.7627L212.495 16.4951C214.091 15.7529 215 16.0622 215.223 17.4229C215.383 18.932 215.408 20.4596 215.297 22.0059L215.019 21.8389C215.019 21.443 214.994 21.1152 214.944 20.8555C214.833 20.1628 214.586 19.8473 214.202 19.9092C214.116 19.9339 214.017 19.971 213.905 20.0205L213.182 20.3174V20.3359L206.706 23.1006C207.164 23.5583 207.702 24.1396 208.32 24.8447C209.075 25.6735 209.792 26.5703 210.473 27.5352C211.165 28.5 211.753 29.4896 212.235 30.5039C212.705 31.5182 212.94 32.4831 212.94 33.3984C212.94 33.5592 212.934 33.7077 212.922 33.8438C212.897 33.9798 212.866 34.1344 212.829 34.3076L212.031 37.6475C211.994 37.7464 211.951 37.833 211.901 37.9072C211.852 37.9691 211.722 38 211.512 38H200.527C200.082 38 199.717 37.8577 199.433 37.5732C199.148 37.2887 199.006 36.9238 199.006 36.4785V34.6602C199.006 34.2148 199.148 33.8499 199.433 33.5654C199.717 33.2809 200.082 33.1387 200.527 33.1387H210.918C210.572 32.5944 210.04 31.8646 209.322 30.9492C208.592 30.0462 207.535 29.0999 206.149 28.1104C204.776 27.1208 203.323 26.3662 201.789 25.8467L201.863 25.1602L202.661 20.7627ZM224.648 38C224.339 38.7793 223.925 39.5586 223.405 40.3379C222.873 41.1048 222.323 41.8223 221.754 42.4902C221.173 43.1458 220.604 43.6777 220.047 44.0859C219.49 44.4818 219.026 44.6797 218.655 44.6797C218.457 44.6797 218.018 44.5745 217.338 44.3643C216.67 44.1416 215.922 43.888 215.093 43.6035C214.264 43.319 213.454 43.0283 212.662 42.7314C211.87 42.4469 211.233 42.2181 210.751 42.0449C210.417 41.9831 210.25 41.8161 210.25 41.5439C210.25 41.2718 210.386 41.1357 210.658 41.1357C211.029 41.21 211.407 41.2594 211.79 41.2842C212.186 41.3213 212.569 41.3398 212.94 41.3398C214.932 41.3398 216.794 40.9193 218.525 40.0781C220.27 39.237 221.803 37.9505 223.127 36.2188C222.818 35.7487 222.508 35.3034 222.199 34.8828C221.902 34.4622 221.401 33.8623 220.696 33.083L221.494 28.5186C221.568 28.2835 221.674 28.166 221.81 28.166C221.946 28.166 222.137 28.3206 222.385 28.6299C222.632 28.9268 222.904 29.2731 223.201 29.6689C223.486 30.0524 223.764 30.4297 224.036 30.8008C224.308 31.1719 224.494 31.444 224.593 31.6172C225.063 32.3223 225.44 32.7552 225.725 32.916C226.009 33.0645 226.492 33.1387 227.172 33.1387H227.84V38H224.648ZM247.211 19.2764C247.199 19.3506 247.161 19.4743 247.1 19.6475C247.038 19.8083 246.97 19.9443 246.896 20.0557C246.846 20.1423 246.735 20.3092 246.562 20.5566C246.401 20.804 246.178 21.0762 245.894 21.373C244.83 21.6823 243.76 22.0719 242.684 22.542C241.607 22.9997 240.556 23.4821 239.529 23.9893C239.566 23.779 239.709 23.4635 239.956 23.043C240.08 22.8203 240.203 22.6224 240.327 22.4492C240.463 22.2637 240.599 22.1214 240.735 22.0225C240.958 21.8369 241.36 21.6019 241.941 21.3174C242.523 21.0205 243.147 20.736 243.815 20.4639C244.496 20.1917 245.145 19.9443 245.764 19.7217C246.395 19.4867 246.877 19.3382 247.211 19.2764ZM237.989 27.6094C238.101 27.6341 238.156 27.7207 238.156 27.8691C238.156 27.8815 238.144 27.9434 238.119 28.0547C238.094 28.1536 238.051 28.3021 237.989 28.5C237.965 28.5618 237.94 28.6299 237.915 28.7041L237.989 27.6094ZM237.915 28.7041L237.525 29.873C237.34 30.3926 237.148 30.9492 236.95 31.543C236.74 32.1367 236.573 32.6686 236.449 33.1387H241.515L241.756 31.0049L244.799 27.5537C244.935 27.3929 245.071 27.3125 245.207 27.3125C245.38 27.3125 245.467 27.3929 245.467 27.5537C245.467 27.5785 245.448 27.665 245.411 27.8135C245.386 27.9619 245.343 28.1846 245.281 28.4814C245.17 29.0505 245.046 29.6751 244.91 30.3555C244.774 31.1595 244.601 32.0872 244.391 33.1387H248.603C248.528 32.9036 248.479 32.681 248.454 32.4707C248.417 32.2728 248.33 32.0192 248.194 31.71L249.363 27.3682C249.462 27.0589 249.58 26.9043 249.716 26.9043C249.914 26.9043 250.081 27.0465 250.217 27.3311C250.353 27.6156 250.464 27.9867 250.551 28.4443C250.637 28.902 250.705 29.403 250.755 29.9473C250.804 30.4915 250.829 31.0111 250.829 31.5059C250.829 32.3841 250.743 33.0459 250.569 33.4912L249.159 37.4434C249.085 37.6413 248.974 37.7835 248.825 37.8701C248.677 37.9567 248.535 38 248.398 38H246.784C245.869 38 245.164 37.7959 244.669 37.3877C244.187 36.9795 243.84 36.46 243.63 35.8291L243.333 37.499C243.296 37.6598 243.222 37.7835 243.11 37.8701C242.987 37.9567 242.739 38 242.368 38H237.804C236.925 38 236.301 37.765 235.93 37.2949C235.559 36.8249 235.324 36.3363 235.225 35.8291L234.408 38H228.285C227.84 38 227.475 37.8577 227.19 37.5732C226.906 37.2887 226.764 36.9238 226.764 36.4785V34.6602C226.764 34.2148 226.906 33.8499 227.19 33.5654C227.475 33.2809 227.84 33.1387 228.285 33.1387H233.258L233.907 30.708L237.6 27.7207C237.736 27.6465 237.841 27.6094 237.915 27.6094H237.989L237.915 28.7041ZM290.425 30.5781C289.448 29.7493 288.588 28.9206 287.846 28.0918C288.588 27.2135 289.435 26.3353 290.388 25.457C291.365 26.2858 292.225 27.1146 292.967 27.9434C292.113 28.9329 291.266 29.8112 290.425 30.5781ZM282.558 46.3311C284.45 46.3311 286.343 46.2259 288.235 46.0156C289.027 43.5046 289.423 41.9707 289.423 41.4141C289.423 39.002 288.266 37.3815 285.953 36.5527C284.37 36.0085 281.661 35.7363 277.826 35.7363C273.286 35.7363 268.809 36.1878 264.393 37.0908C260.038 37.9691 257.861 38.8535 257.861 39.7441C257.861 40.2389 258.467 40.8945 259.68 41.7109C260.273 42.1191 261.059 42.5521 262.036 43.0098C263.026 43.4674 264.257 43.9313 265.729 44.4014C267.213 44.8714 269.439 45.3105 272.408 45.7188C275.389 46.127 278.772 46.3311 282.558 46.3311ZM309.629 37.666C309.617 37.9876 309.586 38.3092 309.536 38.6309V38.7051H309.518C309.48 38.9896 309.431 39.2741 309.369 39.5586C309.357 39.6328 309.338 39.7132 309.313 39.7998C309.078 40.641 308.85 41.278 308.627 41.7109C308.417 42.1562 308.206 42.5397 307.996 42.8613C307.798 43.1829 307.613 43.4489 307.439 43.6592C307.303 43.8324 307.007 44.1416 306.549 44.5869C306.091 45.0199 305.442 45.5085 304.601 46.0527L304.526 46.0898C303.648 46.6465 302.535 47.2217 301.187 47.8154C299.838 48.4215 298.199 48.9782 296.27 49.4854C294.34 49.9925 292.107 50.4069 289.571 50.7285C289.126 50.7904 288.668 50.8398 288.198 50.877L286.491 54.8477C285.254 57.7298 284.463 59.1709 284.116 59.1709C283.968 59.1709 283.894 59.0472 283.894 58.7998C283.894 58.5153 284.865 55.9176 286.807 51.0068C284.988 51.1429 283.015 51.2109 280.888 51.2109C277.869 51.2109 275.154 51.0625 272.742 50.7656C270.33 50.4688 268.221 50.1471 266.415 49.8008C264.609 49.4668 263.118 49.1019 261.943 48.7061C260.768 48.3102 259.921 47.9948 259.401 47.7598C259.191 47.6732 258.795 47.4938 258.214 47.2217C256.853 46.4176 255.87 45.5208 255.264 44.5312C254.732 43.6901 254.466 42.8613 254.466 42.0449C254.466 41.9089 254.472 41.779 254.484 41.6553C254.484 38.3773 256.773 35.7982 261.35 33.918C265.716 32.1243 271.456 31.2275 278.568 31.2275C284.16 31.2275 287.846 31.679 289.627 32.582C291.408 33.4727 292.299 34.9756 292.299 37.0908C292.299 38.1546 292.064 39.5091 291.594 41.1543C291.247 42.3171 290.889 43.4798 290.518 44.6426L290.165 45.7744C292.256 45.5641 293.969 45.3105 295.305 45.0137C297.012 44.6302 298.527 44.2096 299.851 43.752C300.704 43.4674 301.483 43.1768 302.188 42.8799C302.547 42.7314 302.894 42.583 303.228 42.4346C304.155 42.0016 304.897 41.612 305.454 41.2656C306.023 40.9316 306.512 40.5358 306.92 40.0781C307.279 39.6823 307.458 39.2926 307.458 38.9092C307.458 38.8597 307.452 38.804 307.439 38.7422C307.167 37.3939 306.827 36.2188 306.419 35.2168C306.023 34.2272 305.516 33.1882 304.897 32.0996L306.419 27.8506C306.53 27.6156 306.648 27.498 306.771 27.498C306.908 27.498 307.031 27.597 307.143 27.7949C307.402 28.265 307.681 28.8216 307.978 29.4648C308.262 30.1081 308.528 30.8132 308.775 31.5801C308.874 31.9017 308.967 32.248 309.054 32.6191C309.153 32.9902 309.295 33.6396 309.48 34.5674C309.604 35.223 309.666 35.9281 309.666 36.6826C309.666 37.0042 309.654 37.332 309.629 37.666ZM315.195 33.1387H317.923V38H312.394L310.983 21.542L313.266 17.5898C313.327 17.4538 313.426 17.3857 313.562 17.3857C313.736 17.3857 313.841 17.5156 313.878 17.7754L315.195 33.1387ZM324.473 23.3604C323.495 22.5316 322.636 21.7028 321.894 20.874C322.636 19.9958 323.483 19.1175 324.436 18.2393C325.413 19.068 326.272 19.8968 327.015 20.7256C326.161 21.7152 325.314 22.5934 324.473 23.3604ZM336.218 35.3096C335.377 35.2477 334.622 35.1797 333.954 35.1055C333.373 35.0436 332.835 34.9941 332.34 34.957C331.857 34.9199 331.598 34.9014 331.561 34.9014C330.521 34.9014 329.507 35.1302 328.518 35.5879C327.54 36.0456 326.582 36.5465 325.642 37.0908C325.332 37.264 324.899 37.4557 324.343 37.666C323.786 37.8887 323.019 38 322.042 38H318.442C317.997 38 317.632 37.8577 317.348 37.5732C317.063 37.2887 316.921 36.9238 316.921 36.4785V34.6602C316.921 34.2148 317.063 33.8499 317.348 33.5654C317.632 33.2809 317.997 33.1387 318.442 33.1387H324.12C324.553 33.1387 324.881 33.1201 325.104 33.083C325.326 33.0459 325.518 32.9964 325.679 32.9346C326.05 32.7985 326.359 32.6872 326.606 32.6006C326.841 32.514 327.157 32.3717 327.553 32.1738C326.749 31.9017 326.05 31.6481 325.456 31.4131C324.862 31.1781 324.312 30.974 323.805 30.8008C323.298 30.64 322.821 30.5039 322.376 30.3926C321.918 30.2936 321.399 30.2441 320.817 30.2441C320.619 30.2441 320.409 30.2565 320.187 30.2812C319.964 30.2936 319.723 30.3184 319.463 30.3555C319.253 30.3555 319.147 30.2689 319.147 30.0957C319.147 30.0586 319.197 29.972 319.296 29.8359C319.407 29.6875 319.562 29.4896 319.76 29.2422C320.168 28.735 320.861 27.8197 321.838 26.4961C322.11 26.1621 322.388 25.8776 322.673 25.6426C322.957 25.4076 323.304 25.29 323.712 25.29C324.281 25.29 324.93 25.5745 325.66 26.1436C326.39 26.7126 327.287 27.3558 328.351 28.0732C329.414 28.7783 330.688 29.4463 332.173 30.0771C333.657 30.6956 335.445 31.0729 337.535 31.209C337.807 31.209 337.943 31.3265 337.943 31.5615C337.943 31.5863 337.919 31.6481 337.869 31.7471C337.832 31.846 337.764 31.9883 337.665 32.1738C337.479 32.5449 337.288 32.9655 337.09 33.4355C336.818 33.9798 336.527 34.6045 336.218 35.3096ZM351.915 34.252C351.915 35.3281 351.637 36.5094 351.08 37.7959C350.523 39.0824 349.849 40.276 349.058 41.377C348.254 42.4655 347.443 43.3809 346.627 44.123C345.798 44.8652 345.13 45.2363 344.623 45.2363C344.413 45.2363 343.986 45.1312 343.343 44.9209C342.712 44.6982 342.013 44.4323 341.246 44.123C340.492 43.8262 339.743 43.5355 339.001 43.251C338.259 42.9541 337.646 42.7253 337.164 42.5645C336.83 42.4902 336.663 42.3171 336.663 42.0449C336.663 41.7852 336.799 41.6553 337.071 41.6553C337.442 41.7171 337.813 41.7728 338.185 41.8223C338.556 41.8717 338.927 41.8965 339.298 41.8965C341.326 41.8965 343.25 41.3584 345.068 40.2822C346.899 39.1937 348.538 37.6413 349.985 35.625C349.614 34.9076 349.225 34.3138 348.816 33.8438C348.421 33.3737 347.932 32.7985 347.351 32.1182L348.111 27.665C348.186 27.3929 348.291 27.2568 348.427 27.2568C348.55 27.2568 348.631 27.2939 348.668 27.3682C349.002 27.7393 349.361 28.1784 349.744 28.6855C350.115 29.1927 350.455 29.7308 350.765 30.2998C351.086 30.8688 351.358 31.4935 351.581 32.1738C351.804 32.8542 351.915 33.5469 351.915 34.252ZM363.326 41.1768C363.314 41.251 363.277 41.3685 363.215 41.5293C363.153 41.7025 363.085 41.8447 363.011 41.9561C362.961 42.0426 362.85 42.2096 362.677 42.457C362.516 42.7044 362.293 42.9766 362.009 43.2734C360.945 43.5827 359.875 43.9661 358.799 44.4238C357.723 44.8939 356.671 45.3825 355.645 45.8896C355.682 45.6794 355.824 45.3639 356.071 44.9434C356.195 44.7207 356.319 44.5166 356.442 44.3311C356.578 44.1579 356.715 44.0218 356.851 43.9229C357.073 43.7373 357.475 43.4961 358.057 43.1992C358.638 42.9147 359.263 42.6364 359.931 42.3643C360.611 42.0921 361.26 41.8385 361.879 41.6035C362.51 41.3809 362.992 41.2386 363.326 41.1768ZM366.276 32.5449C366.276 32.582 366.252 32.6562 366.202 32.7676C366.165 32.8789 366.109 33.0335 366.035 33.2314C365.862 33.6149 365.676 34.0479 365.479 34.5303C365.268 35.0003 365.07 35.4456 364.885 35.8662C364.699 36.2868 364.588 36.5465 364.551 36.6455C364.489 36.8187 364.409 36.9609 364.31 37.0723C364.211 37.196 364.025 37.2578 363.753 37.2578H356.906C356.399 37.2578 355.997 37.1589 355.7 36.9609C355.391 36.7507 355.236 36.361 355.236 35.792V31.4316C355.236 31.2337 355.261 31.1038 355.311 31.042C355.36 30.9925 355.422 30.9678 355.496 30.9678C355.657 30.9678 355.774 31.0482 355.849 31.209C355.91 31.3574 355.991 31.5182 356.09 31.6914C356.201 31.8522 356.356 32.013 356.554 32.1738C356.752 32.3223 357.055 32.3965 357.463 32.3965H363.697C363.153 31.4811 362.528 30.5905 361.823 29.7246C361.118 28.8711 360.085 27.9001 358.725 26.8115L359.949 22.3027C359.986 22.1419 360.073 22.0615 360.209 22.0615C360.345 22.0615 360.463 22.111 360.562 22.21C361.675 23.2861 362.603 24.3561 363.345 25.4199C364.087 26.4837 364.674 27.4733 365.107 28.3887C365.553 29.304 365.862 30.1266 366.035 30.8564C366.196 31.5739 366.276 32.1367 366.276 32.5449ZM371.787 33.1387H374.515V38H368.985L367.575 21.542L369.857 17.5898C369.919 17.4538 370.018 17.3857 370.154 17.3857C370.327 17.3857 370.433 17.5156 370.47 17.7754L371.787 33.1387ZM378.931 22.8779C377.953 22.0492 377.094 21.2204 376.352 20.3916C377.094 19.5133 377.941 18.6351 378.894 17.7568C379.871 18.5856 380.73 19.4144 381.473 20.2432C380.619 21.2327 379.772 22.111 378.931 22.8779ZM385.685 31.8213C385.685 32.1182 385.623 32.4954 385.499 32.9531C385.388 33.4108 385.239 33.8932 385.054 34.4004C384.868 34.9076 384.67 35.4209 384.46 35.9404C384.262 36.4723 384.095 36.9548 383.959 37.3877C383.86 37.7959 383.557 38 383.05 38H374.533C374.088 38 373.723 37.8577 373.438 37.5732C373.154 37.2887 373.012 36.9238 373.012 36.4785V34.6602C373.012 34.2148 373.154 33.8499 373.438 33.5654C373.723 33.2809 374.088 33.1387 374.533 33.1387H383.05C382.976 32.7676 382.87 32.3841 382.734 31.9883C382.598 31.6048 382.462 31.2461 382.326 30.9121C382.202 30.541 382.035 30.1699 381.825 29.7988L383.347 25.5869C383.446 25.3148 383.563 25.1787 383.699 25.1787C383.835 25.1787 383.953 25.2653 384.052 25.4385C384.225 25.7354 384.404 26.125 384.59 26.6074C384.775 27.0775 384.955 27.6094 385.128 28.2031C385.289 28.7845 385.419 29.3906 385.518 30.0215C385.629 30.64 385.685 31.2399 385.685 31.8213Z" fill="#444A25"/>
<path d="M10.5908 26.6592C11.2256 27.4014 11.8945 28.0215 12.5977 28.5195C12.5977 28.5195 12.5977 28.6514 12.5977 28.915C12.1777 29.3545 11.5283 30.0039 10.6494 30.8633C10.5518 30.9023 10.4443 30.8877 10.3271 30.8193C10.2197 30.751 10.1172 30.6826 10.0195 30.6143C9.52148 30.1943 8.97949 29.6572 8.39355 29.0029C8.35449 28.8857 8.38379 28.7832 8.48145 28.6953C8.58887 28.5977 8.69141 28.5098 8.78906 28.4316C9.01367 28.207 9.30176 27.875 9.65332 27.4355C9.8584 27.2402 10.1709 26.9814 10.5908 26.6592ZM5.69824 35.3018L5.72754 35.3604C7.29004 33.876 8.70117 33.207 9.96094 33.3535C10.5957 33.4316 11.0645 33.7686 11.3672 34.3643C11.4062 34.5889 11.4258 34.8086 11.4258 35.0234C11.4258 36.0488 10.8984 37.1816 9.84375 38.4219C9.14062 39.2422 8.29102 39.8525 7.29492 40.2529C5.75195 40.6729 4.21875 40.8828 2.69531 40.8828C2.17773 40.8828 1.66016 40.8535 1.14258 40.7949C0.996094 40.7949 0.834961 40.7217 0.65918 40.5752C0.639648 40.5361 0.644531 40.4775 0.673828 40.3994C0.703125 40.3213 0.717773 40.2725 0.717773 40.2529C0.883789 40.1357 1.11328 40.0332 1.40625 39.9453C1.78711 39.8477 2.02637 39.7793 2.12402 39.7402C2.54395 39.3789 3.2666 38.5098 4.29199 37.1328C4.65332 36.0684 4.86328 34.7891 4.92188 33.2949C4.92188 32.0156 4.93164 30.7217 4.95117 29.4131C4.9707 28.5732 4.99023 28.0654 5.00977 27.8896C5.06836 27.333 5.21973 26.874 5.46387 26.5127C5.52246 26.3662 5.89355 25.5068 6.57715 23.9346C6.61621 23.8076 6.69434 23.7344 6.81152 23.7148C6.92871 23.6758 7.00684 23.7197 7.0459 23.8467C7.06543 24.0029 7.04102 24.2422 6.97266 24.5645C6.9043 24.877 6.87012 25.0967 6.87012 25.2236C6.7334 26.2197 6.64551 27.4893 6.60645 29.0322C6.51855 30.8291 6.44531 32.0889 6.38672 32.8115C6.26953 33.3486 6.04004 34.1787 5.69824 35.3018ZM9.50684 35.6973C9.25293 35.2676 8.8623 35.1064 8.33496 35.2139C7.41699 35.3896 6.53809 35.9365 5.69824 36.8545C5.01465 37.6943 4.33594 38.5244 3.66211 39.3447C4.6582 39.1299 5.65918 38.9102 6.66504 38.6855C7.77832 38.3438 8.64746 37.8359 9.27246 37.1621C9.52637 36.7031 9.65332 36.3613 9.65332 36.1367C9.65332 35.9609 9.60449 35.8145 9.50684 35.6973ZM22.8809 27.5967C21.6406 27.2939 20.7715 26.6494 20.2734 25.6631C21.4941 24.2275 22.1729 23.4609 22.3096 23.3633C23.1104 24.0566 23.9746 24.7158 24.9023 25.3408L22.8809 27.5967ZM28.5791 22.1914C28.5791 22.2891 28.5889 24.1787 28.6084 27.8604C28.6377 30.1846 28.5107 32.084 28.2275 33.5586C28.042 34.5352 27.5488 35.458 26.748 36.3271C25.957 37.1865 25.0684 37.7432 24.082 37.9971C23.3887 38.1826 22.5977 38.1924 21.709 38.0264C21.0742 38.7881 20.6055 39.3105 20.3027 39.5938C19.707 40.1699 19.126 40.5703 18.5596 40.7949C17.8271 41.1074 17.1338 41.0586 16.4795 40.6484C15.835 40.2383 15.3809 39.584 15.1172 38.6855C15.0391 38.4316 14.8877 37.6309 14.6631 36.2832L14.5752 33.9248L14.5166 28.8564C14.4971 28.5146 14.4873 27.9922 14.4873 27.2891C14.4678 26.6738 14.4971 26.1758 14.5752 25.7949C14.7705 25.2285 15.0293 24.3789 15.3516 23.2461C15.498 23.1191 15.5811 23.0557 15.6006 23.0557C15.6982 23.0557 15.8057 23.0947 15.9229 23.1729C15.7471 25.0186 15.6592 26.8105 15.6592 28.5488C15.6592 30.6875 15.7861 32.7383 16.04 34.7012C16.0791 35.7363 16.5527 36.4541 17.4609 36.8545C17.7344 36.9814 18.0518 37.0449 18.4131 37.0449C18.9502 37.0449 19.4824 36.9033 20.0098 36.6201C20.1855 36.5225 20.1855 36.4102 20.0098 36.2832L19.9512 36.2539L19.9219 36.2246C19.7363 35.7266 19.6436 35.2188 19.6436 34.7012C19.6436 33.4023 20.1562 32.1816 21.1816 31.0391C21.6211 30.541 22.1582 30.292 22.793 30.292C23.0371 30.292 23.2666 30.3311 23.4814 30.4092C24.0479 30.6338 24.3994 31.0244 24.5361 31.5811C24.6143 31.8838 24.6533 32.1719 24.6533 32.4453C24.6533 33.5098 24.1064 34.8037 23.0127 36.3271C23.2275 36.3271 23.4961 36.3027 23.8184 36.2539C25.8398 35.9805 26.9873 35.1406 27.2607 33.7344C27.4463 32.8555 27.4902 31.7666 27.3926 30.4678C27.2266 28.3291 27.124 26.4883 27.085 24.9453C27.0654 24.0469 27.1533 23.3389 27.3486 22.8213C27.4951 22.46 27.8174 21.6982 28.3154 20.5361C28.374 20.4385 28.4424 20.3896 28.5205 20.3896C28.6279 20.4092 28.7012 20.4678 28.7402 20.5654C28.7402 20.7705 28.7207 21.0439 28.6816 21.3857C28.6133 21.7861 28.5791 22.0547 28.5791 22.1914ZM21.416 32.5332C20.8398 32.9141 20.5811 33.3486 20.6396 33.8369C20.7568 34.8525 21.0938 35.4824 21.6504 35.7266C22.2949 35.3848 22.7979 34.9648 23.1592 34.4668C23.3545 34.0469 23.4521 33.6953 23.4521 33.4121C23.4521 33.1875 23.4033 32.9971 23.3057 32.8408C23.0811 32.46 22.7393 32.2695 22.2803 32.2695C21.9678 32.2695 21.6797 32.3574 21.416 32.5332ZM33.4717 24.9746C33.4033 25.3359 33.3301 25.8682 33.252 26.5713C33.1738 27.4697 33.125 28.71 33.1055 30.292C33.1055 32.1084 33.0859 33.3779 33.0469 34.1006C32.9688 35.6436 32.5488 37.2549 31.7871 38.9346C31.6406 39.2471 31.5088 39.4033 31.3916 39.4033C31.333 39.4033 31.2744 39.3838 31.2158 39.3447C31.0791 39.2666 31.0303 39.0859 31.0693 38.8027C31.2256 38.2656 31.3525 36.918 31.4502 34.7598C31.3135 33.0215 31.2646 31.0732 31.3037 28.915C31.626 27.8311 32.1875 26.4883 32.9883 24.8867C33.1836 24.7695 33.3447 24.7988 33.4717 24.9746ZM48.0762 33.0752C48.2617 33.5537 48.3545 34.0762 48.3545 34.6426C48.3545 35.4824 48.1348 36.4834 47.6953 37.6455C46.8555 39.8818 45.7471 40.9805 44.3701 40.9414C43.7451 40.8438 43.3008 40.4531 43.0371 39.7695C42.998 39.5059 42.9785 39.2373 42.9785 38.9639C42.9785 38.2998 43.3105 36.9766 43.9746 34.9941C43.8574 34.9746 43.6865 34.8965 43.4619 34.7598C43.5986 34.1445 43.7305 33.6123 43.8574 33.1631C43.916 32.7236 44.0332 32.1035 44.209 31.3027C44.375 31.2051 44.8242 31.1953 45.5566 31.2734C46.7188 31.4004 47.5586 32.001 48.0762 33.0752ZM46.5527 35.9316C46.1719 35.4141 45.6104 35.1357 44.8682 35.0967C44.2529 36.3369 43.9941 37.4453 44.0918 38.4219C44.209 38.8027 44.4092 39.042 44.6924 39.1396C44.79 39.1592 44.8926 39.1689 45 39.1689C45.3906 39.1689 45.9473 38.8076 46.6699 38.085C46.8164 37.8115 46.8896 37.5137 46.8896 37.1914C46.8896 36.7324 46.7773 36.3125 46.5527 35.9316ZM49.5996 21.5029C49.4434 21.9814 49.0576 22.8018 48.4424 23.9639C48.335 23.9639 48.1934 23.9639 48.0176 23.9639C47.3535 23.9834 46.792 24.3398 46.333 25.0332C45.9717 25.6387 45.625 26.2393 45.293 26.835C44.6484 27.958 43.8086 28.5098 42.7734 28.4902C42.6465 28.4512 42.4854 28.373 42.29 28.2559C42.5049 27.6113 42.8516 26.8008 43.3301 25.8242C43.6328 25.8242 44.0674 25.7412 44.6338 25.5752C45.2686 25.3018 45.8838 24.4912 46.4795 23.1436C47.0459 21.9717 47.7881 21.332 48.7061 21.2246C49.2041 21.2246 49.502 21.3174 49.5996 21.5029ZM97.998 18.2949C96.7578 18.0117 95.8887 17.3721 95.3906 16.376C96.6309 14.9502 97.3145 14.1885 97.4414 14.0908C98.2324 14.7939 99.0918 15.4531 100.02 16.0684L97.998 18.2949ZM100.679 25.9707C98.7939 26.752 97.0605 27.8701 95.4785 29.3252C94.5605 29.9307 93.7646 30.2334 93.0908 30.2334C92.6514 30.2334 92.2705 30.1211 91.9482 29.8965C91.8701 29.8379 91.6895 29.6768 91.4062 29.4131C90.4492 30.0186 89.0576 30.8096 87.2314 31.7861C84.0967 33.2314 81.167 34.2812 78.4424 34.9355C76.1084 35.541 73.4082 35.8633 70.3418 35.9023C66.5625 35.9414 62.6221 35.3115 58.5205 34.0127C58.1592 34.667 57.6807 35.7363 57.085 37.2207C56.5674 38.4805 56.1475 39.3691 55.8252 39.8867C55.6494 40.0918 55.0488 40.3311 54.0234 40.6045C53.2617 40.7119 52.1143 40.8633 50.5811 41.0586C50.4932 41.0586 50.3711 41 50.2148 40.8828C50.1367 40.7363 50.1855 40.5654 50.3613 40.3701C51.4648 39.7744 53.0664 38.8223 55.166 37.5137C56.3867 36.6738 57.5781 34.5156 58.7402 31.0391C58.8379 30.7168 58.9551 30.5752 59.0918 30.6143C59.6973 30.7803 60.7275 31.0635 62.1826 31.4639C63.4229 31.7568 64.7949 32.0059 66.2988 32.2109C67.5 32.3672 68.8379 32.4893 70.3125 32.5771C73.1934 32.7139 75.7959 32.5918 78.1201 32.2109C82.5146 31.4883 86.0449 30.458 88.7109 29.1201C89.1113 28.9248 89.7607 28.5244 90.6592 27.9189C91.2939 27.5186 91.6113 27.3184 91.6113 27.3184C92.0312 28.0215 92.4902 28.3828 92.9883 28.4023C93.9355 28.4414 94.8291 28.2021 95.6689 27.6846C96.1279 27.3623 97.0947 26.6885 98.5693 25.6631C98.5303 25.6436 97.5 24.8477 95.4785 23.2754C95.3027 23.1094 95.083 23.0264 94.8193 23.0264C94.5654 23.0264 94.2676 23.1289 93.9258 23.334C93.8477 23.3926 93.5596 23.6221 93.0615 24.0225C92.876 24.0615 92.7246 23.9785 92.6074 23.7734C92.6465 23.5391 92.7588 23.3145 92.9443 23.0996C93.1396 22.875 93.3252 22.6699 93.501 22.4844C94.3604 21.7715 95.0732 21.415 95.6396 21.415C96.2939 21.415 97.2021 21.9521 98.3643 23.0264C99.0283 23.5049 100.059 24.1543 101.455 24.9746C101.514 25.082 101.553 25.2529 101.572 25.4873C101.318 25.6729 101.021 25.834 100.679 25.9707ZM78.1201 42.5527C77.3975 42.2207 76.5869 41.6543 75.6885 40.8535L74.1504 42.5527C72.9297 42.2793 72.0605 41.6299 71.543 40.6045C72.7637 39.1494 73.4326 38.3633 73.5498 38.2461C74.2334 38.8418 75.0146 39.4375 75.8936 40.0332L77.7246 38.1436C78.8867 39.1104 79.7559 39.7939 80.332 40.1943C79.3164 41.2686 78.5791 42.0547 78.1201 42.5527ZM107.871 24.0518L108.047 24.1104C108.613 24.6475 109.307 25.2188 110.127 25.8242C110 26.0977 109.8 26.4102 109.526 26.7617C109.263 27.1133 108.999 27.4404 108.735 27.7432C108.638 27.8408 108.535 27.9531 108.428 28.0801C108.32 28.1973 108.193 28.2363 108.047 28.1973C107.549 27.9336 107.178 27.6211 106.934 27.2598C106.602 27.084 106.274 26.7959 105.952 26.3955C106.606 25.4482 107.246 24.667 107.871 24.0518ZM108.677 30.6436C109.663 31.3662 110.156 32.377 110.156 33.6758C110.156 34.4961 109.912 35.4287 109.424 36.4736C108.984 37.3525 108.535 38.2217 108.076 39.0811C107.803 39.6377 107.124 39.9795 106.04 40.1064C105.356 40.2627 104.307 40.4629 102.891 40.707C102.852 40.7266 102.783 40.6436 102.686 40.458C102.803 40.2041 103.042 40.0137 103.403 39.8867C104.019 39.6523 104.326 39.5352 104.326 39.5352C105.205 39.1348 106.475 38.4414 108.135 37.4551C108.477 37.0742 108.599 36.5957 108.501 36.0195C108.423 35.082 107.725 34.2715 106.406 33.5879C106.387 33.5098 106.377 33.4219 106.377 33.3242C106.377 33.1387 106.445 32.8896 106.582 32.5771C106.719 32.2549 106.797 32.0303 106.816 31.9033C106.963 31.5518 107.202 31.0439 107.534 30.3799C107.622 30.2236 107.725 30.1455 107.842 30.1455C107.939 30.1455 108.091 30.2236 108.296 30.3799C108.511 30.5361 108.638 30.624 108.677 30.6436ZM124.57 35.2432C124.434 36.2197 123.916 37.5186 123.018 39.1396C122.773 39.5791 122.354 39.877 121.758 40.0332C121.26 40.1602 120.747 40.292 120.22 40.4287C119.839 40.5459 119.263 40.7168 118.491 40.9414C118.306 40.9414 118.193 40.8828 118.154 40.7656C118.154 40.6191 118.286 40.4678 118.55 40.3115C119.351 39.833 120.151 39.3643 120.952 38.9053C121.831 38.3389 122.578 37.7676 123.193 37.1914C123.379 36.9473 123.438 36.6152 123.369 36.1953C123.252 35.9023 123.115 35.7021 122.959 35.5947C122.754 35.6338 122.563 35.6533 122.388 35.6533C121.665 35.6533 121.123 35.4043 120.762 34.9062C120.625 34.6719 120.557 34.4229 120.557 34.1592C120.557 33.876 120.645 33.5244 120.82 33.1045C120.986 32.792 121.138 32.46 121.274 32.1084C121.411 31.7568 121.543 31.3809 121.67 30.9805C121.885 30.541 122.173 30.2529 122.534 30.1162C123.198 29.9893 123.73 30.2578 124.131 30.9219C124.57 31.6641 124.79 32.543 124.79 33.5586C124.79 34.0957 124.717 34.6572 124.57 35.2432ZM132.466 32.0059C132.563 32.4062 132.612 32.8164 132.612 33.2363C132.612 34.0566 132.402 34.9746 131.982 35.9902C131.943 36.0684 131.523 36.9375 130.723 38.5977C130.625 38.8223 130.396 39.1055 130.034 39.4473C129.097 39.7402 127.656 40.1162 125.713 40.5752C125.576 40.6631 125.479 40.5947 125.42 40.3701C125.459 40.3115 125.806 40.0527 126.46 39.5938C126.88 39.291 127.612 38.8613 128.657 38.3047C129.595 37.8262 130.303 37.3867 130.781 36.9863C131.104 36.625 131.177 36.083 131.001 35.3604C130.776 34.501 130.083 33.793 128.921 33.2363C128.843 33.1289 128.843 33.0068 128.921 32.8701C128.979 32.7529 129.043 32.6309 129.111 32.5039C129.326 31.752 129.614 30.8438 129.976 29.7793C130.513 29.8184 131.021 30.0674 131.499 30.5264C131.919 30.9463 132.241 31.4395 132.466 32.0059ZM135.601 40.458C135.239 40.5361 134.648 40.6484 133.828 40.7949C133.652 40.7949 133.545 40.7314 133.506 40.6045C133.486 40.4287 133.623 40.2627 133.916 40.1064C134.678 39.6182 135.439 39.1348 136.201 38.6562C137.1 38.0801 137.827 37.543 138.384 37.0449C138.97 36.3809 139.521 35.4092 140.039 34.1299C140.42 33.0459 140.801 31.9668 141.182 30.8926C141.24 30.7266 141.372 30.6436 141.577 30.6436C141.753 30.6436 141.841 30.7266 141.841 30.8926C141.88 31.2734 141.719 32.1426 141.357 33.5C140.742 35.8633 140.005 37.7725 139.146 39.2275C138.823 39.7646 138.291 40.0967 137.549 40.2236C136.895 40.3018 136.245 40.3799 135.601 40.458ZM146.88 24.9746C146.812 25.3359 146.738 25.8682 146.66 26.5713C146.582 27.4697 146.533 28.71 146.514 30.292C146.514 32.1084 146.494 33.3779 146.455 34.1006C146.377 35.6436 145.957 37.2549 145.195 38.9346C145.049 39.2471 144.917 39.4033 144.8 39.4033C144.741 39.4033 144.683 39.3838 144.624 39.3447C144.487 39.2666 144.438 39.0859 144.478 38.8027C144.634 38.2656 144.761 36.918 144.858 34.7598C144.722 33.0215 144.673 31.0732 144.712 28.915C145.034 27.8311 145.596 26.4883 146.396 24.8867C146.592 24.7695 146.753 24.7988 146.88 24.9746Z" fill="#444A25"/>
</svg>
