<svg width="393" height="57" viewBox="0 0 393 57" fill="none" xmlns="http://www.w3.org/2000/svg">
<g filter="url(#filter0_d_100_2)">
<path d="M169.055 26.9043C167.83 26.9043 166.983 26.6507 166.513 26.1436C166.043 25.6364 165.808 24.9932 165.808 24.2139C165.808 23.682 165.9 23.1068 166.086 22.4883C166.271 21.8822 166.507 21.2946 166.791 20.7256C167.076 20.1442 167.391 19.5876 167.737 19.0557C168.071 18.5114 168.405 18.0537 168.739 17.6826C168.603 17.6208 168.473 17.5589 168.35 17.4971C168.214 17.4476 168.146 17.3424 168.146 17.1816C168.146 17.1569 168.164 17.0889 168.201 16.9775C168.251 16.8662 168.325 16.7054 168.424 16.4951C168.609 16.0745 168.82 15.6107 169.055 15.1035C169.327 14.4974 169.648 13.8232 170.02 13.0811C170.081 12.9079 170.199 12.8213 170.372 12.8213C170.471 12.8213 170.619 12.8708 170.817 12.9697C171.424 13.3779 172.023 13.8542 172.617 14.3984C173.211 14.9303 173.755 15.5612 174.25 16.291C174.732 17.0208 175.116 17.8311 175.4 18.7217C175.697 19.6123 175.846 20.6019 175.846 21.6904C175.846 21.8512 175.833 22.043 175.809 22.2656C175.796 22.4883 175.728 22.779 175.604 23.1377C175.493 23.484 175.326 23.9232 175.104 24.4551C174.881 24.9746 174.572 25.624 174.176 26.4033C174.064 26.6012 173.953 26.7373 173.842 26.8115C173.718 26.8734 173.489 26.9043 173.155 26.9043H169.055ZM173.211 22.043C173.075 21.6719 172.716 21.0781 172.135 20.2617C171.566 19.4577 170.725 18.7526 169.611 18.1465C169.376 18.5423 169.154 18.9876 168.943 19.4824C168.745 19.9772 168.646 20.4225 168.646 20.8184C168.646 21.1895 168.758 21.4863 168.98 21.709C169.191 21.9316 169.587 22.043 170.168 22.043H173.211Z" fill="white"/>
<path d="M184.474 14.751C185.191 14.751 185.853 15.0355 186.459 15.6045C187.065 16.1735 187.578 16.8724 187.999 17.7012C188.42 18.5299 188.76 19.4206 189.02 20.373C189.267 21.3132 189.391 22.1543 189.391 22.8965C189.391 23.6387 189.273 24.3809 189.038 25.123C188.803 25.8776 188.5 26.6383 188.129 27.4053C187.758 28.1846 187.319 28.9577 186.812 29.7246C186.304 30.4792 185.772 31.1595 185.216 31.7656C184.659 32.3717 184.121 32.8727 183.602 33.2686C183.07 33.652 182.637 33.8438 182.303 33.8438C182.105 33.8438 181.684 33.751 181.041 33.5654C180.398 33.3799 179.68 33.151 178.889 32.8789C178.085 32.6068 177.305 32.347 176.551 32.0996C175.796 31.8398 175.178 31.6296 174.695 31.4688C174.361 31.3945 174.194 31.2214 174.194 30.9492C174.194 30.6895 174.33 30.5596 174.603 30.5596C174.937 30.6585 175.271 30.7266 175.604 30.7637C175.951 30.7884 176.31 30.8008 176.681 30.8008C177.72 30.8008 178.79 30.6276 179.891 30.2812C180.992 29.9225 182.043 29.4401 183.045 28.834C184.035 28.2279 184.919 27.5166 185.698 26.7002C186.478 25.8962 187.102 25.0365 187.572 24.1211C187.572 23.985 187.535 23.8428 187.461 23.6943C187.399 23.5335 187.35 23.3727 187.312 23.2119C187.152 24.0531 186.731 24.7087 186.051 25.1787C185.37 25.6488 184.647 25.8838 183.88 25.8838C182.631 25.8838 181.74 25.4694 181.208 24.6406C180.688 23.8242 180.429 22.8532 180.429 21.7275C180.429 20.9606 180.54 20.1628 180.763 19.334C180.973 18.5052 181.264 17.7507 181.635 17.0703C182.006 16.4023 182.439 15.8457 182.934 15.4004C183.428 14.9674 183.942 14.751 184.474 14.751ZM182.099 20.9854C182.705 21.2822 183.379 21.4307 184.121 21.4307C184.863 21.4307 185.525 21.3132 186.106 21.0781C185.834 20.6699 185.494 20.3298 185.086 20.0576C184.678 19.7979 184.276 19.668 183.88 19.668C183.534 19.668 183.212 19.7669 182.915 19.9648C182.606 20.1628 182.334 20.5029 182.099 20.9854Z" fill="white"/>
<path d="M199.8 26.9043C199.491 27.6836 199.076 28.4629 198.557 29.2422C198.025 30.0091 197.474 30.7266 196.905 31.3945C196.324 32.0501 195.755 32.582 195.198 32.9902C194.642 33.3861 194.178 33.584 193.807 33.584C193.609 33.584 193.17 33.4788 192.489 33.2686C191.821 33.0459 191.073 32.7923 190.244 32.5078C189.415 32.2233 188.605 31.9326 187.813 31.6357C187.022 31.3512 186.385 31.1224 185.902 30.9492C185.568 30.8874 185.401 30.7204 185.401 30.4482C185.401 30.1761 185.537 30.04 185.81 30.04C186.181 30.1143 186.558 30.1637 186.941 30.1885C187.337 30.2256 187.721 30.2441 188.092 30.2441C190.083 30.2441 191.945 29.8236 193.677 28.9824C195.421 28.1413 196.955 26.8548 198.278 25.123C197.969 24.653 197.66 24.2077 197.351 23.7871C197.054 23.3665 196.553 22.7666 195.848 21.9873L196.646 17.4229C196.72 17.1878 196.825 17.0703 196.961 17.0703C197.097 17.0703 197.289 17.2249 197.536 17.5342C197.784 17.8311 198.056 18.1774 198.353 18.5732C198.637 18.9567 198.915 19.334 199.188 19.7051C199.46 20.0762 199.645 20.3483 199.744 20.5215C200.214 21.2266 200.591 21.6595 200.876 21.8203C201.16 21.9688 201.643 22.043 202.323 22.043H202.991V26.9043H199.8Z" fill="white"/>
<path d="M215.905 30.0811C215.893 30.1553 215.856 30.2728 215.794 30.4336C215.732 30.6068 215.664 30.749 215.59 30.8604C215.54 30.9469 215.429 31.1139 215.256 31.3613C215.095 31.6087 214.872 31.8809 214.588 32.1777C213.524 32.487 212.454 32.8704 211.378 33.3281C210.302 33.7982 209.25 34.2868 208.224 34.7939C208.261 34.5837 208.403 34.2682 208.65 33.8477C208.774 33.625 208.898 33.4209 209.021 33.2354C209.158 33.0622 209.294 32.9261 209.43 32.8271C209.652 32.6416 210.054 32.4004 210.636 32.1035C211.217 31.819 211.842 31.5407 212.51 31.2686C213.19 30.9964 213.84 30.7428 214.458 30.5078C215.089 30.2852 215.571 30.1429 215.905 30.0811Z" fill="white"/>
<path d="M204.42 7.19922C204.42 6.75391 204.525 6.32715 204.735 5.91895C204.958 5.52311 205.205 5.26953 205.478 5.1582L217.334 0C217.334 0.408203 217.21 0.822591 216.963 1.24316C216.703 1.66374 216.456 1.9235 216.221 2.02246L204.42 7.19922ZM205.014 9.66699L214.848 5.39941C216.443 4.65723 217.353 4.96647 217.575 6.32715C217.736 7.83626 217.761 9.36393 217.649 10.9102L217.371 10.7432C217.371 10.3473 217.346 10.0195 217.297 9.75977C217.186 9.06706 216.938 8.75163 216.555 8.81348C216.468 8.83822 216.369 8.87533 216.258 8.9248L215.534 9.22168V9.24023L209.059 12.0049C209.516 12.4626 210.054 13.0439 210.673 13.749C211.427 14.5778 212.145 15.4746 212.825 16.4395C213.518 17.4043 214.105 18.3939 214.588 19.4082C215.058 20.4225 215.293 21.3874 215.293 22.3027C215.293 22.4635 215.287 22.612 215.274 22.748C215.25 22.8841 215.219 23.0387 215.182 23.2119L214.384 26.5518C214.347 26.6507 214.303 26.7373 214.254 26.8115C214.204 26.8734 214.075 26.9043 213.864 26.9043H202.88C202.435 26.9043 202.07 26.762 201.785 26.4775C201.501 26.193 201.358 25.8281 201.358 25.3828V23.5645C201.358 23.1191 201.501 22.7542 201.785 22.4697C202.07 22.1852 202.435 22.043 202.88 22.043H213.271C212.924 21.4987 212.392 20.7689 211.675 19.8535C210.945 18.9505 209.887 18.0042 208.502 17.0146C207.129 16.0251 205.675 15.2705 204.142 14.751L204.216 14.0645L205.014 9.66699Z" fill="white"/>
<path d="M227.001 26.9043C226.692 27.6836 226.277 28.4629 225.758 29.2422C225.226 30.0091 224.675 30.7266 224.106 31.3945C223.525 32.0501 222.956 32.582 222.399 32.9902C221.843 33.3861 221.379 33.584 221.008 33.584C220.81 33.584 220.371 33.4788 219.69 33.2686C219.022 33.0459 218.274 32.7923 217.445 32.5078C216.617 32.2233 215.806 31.9326 215.015 31.6357C214.223 31.3512 213.586 31.1224 213.104 30.9492C212.77 30.8874 212.603 30.7204 212.603 30.4482C212.603 30.1761 212.739 30.04 213.011 30.04C213.382 30.1143 213.759 30.1637 214.143 30.1885C214.538 30.2256 214.922 30.2441 215.293 30.2441C217.285 30.2441 219.146 29.8236 220.878 28.9824C222.622 28.1413 224.156 26.8548 225.479 25.123C225.17 24.653 224.861 24.2077 224.552 23.7871C224.255 23.3665 223.754 22.7666 223.049 21.9873L223.847 17.4229C223.921 17.1878 224.026 17.0703 224.162 17.0703C224.298 17.0703 224.49 17.2249 224.737 17.5342C224.985 17.8311 225.257 18.1774 225.554 18.5732C225.838 18.9567 226.117 19.334 226.389 19.7051C226.661 20.0762 226.846 20.3483 226.945 20.5215C227.415 21.2266 227.793 21.6595 228.077 21.8203C228.362 21.9688 228.844 22.043 229.524 22.043H230.192V26.9043H227.001Z" fill="white"/>
<path d="M249.563 8.18066C249.551 8.25488 249.514 8.37858 249.452 8.55176C249.39 8.71257 249.322 8.84863 249.248 8.95996C249.199 9.04655 249.087 9.21354 248.914 9.46094C248.753 9.70833 248.531 9.98047 248.246 10.2773C247.182 10.5866 246.112 10.9762 245.036 11.4463C243.96 11.904 242.909 12.3864 241.882 12.8936C241.919 12.6833 242.061 12.3678 242.309 11.9473C242.432 11.7246 242.556 11.5267 242.68 11.3535C242.816 11.168 242.952 11.0257 243.088 10.9268C243.311 10.7412 243.713 10.5062 244.294 10.2217C244.875 9.9248 245.5 9.6403 246.168 9.36816C246.848 9.09603 247.498 8.84863 248.116 8.62598C248.747 8.39095 249.229 8.24251 249.563 8.18066Z" fill="white"/>
<path d="M240.342 16.5137C240.453 16.5384 240.509 16.625 240.509 16.7734C240.509 16.7858 240.496 16.8477 240.472 16.959C240.447 17.0579 240.404 17.2064 240.342 17.4043C240.317 17.4661 240.292 17.5342 240.268 17.6084L240.342 16.5137ZM240.268 17.6084L239.878 18.7773C239.692 19.2969 239.501 19.8535 239.303 20.4473C239.092 21.041 238.925 21.5729 238.802 22.043H243.867L244.108 19.9092L247.151 16.458C247.287 16.2972 247.424 16.2168 247.56 16.2168C247.733 16.2168 247.819 16.2972 247.819 16.458C247.819 16.4827 247.801 16.5693 247.764 16.7178C247.739 16.8662 247.696 17.0889 247.634 17.3857C247.522 17.9548 247.399 18.5794 247.263 19.2598C247.127 20.0638 246.953 20.9915 246.743 22.043H250.955C250.881 21.8079 250.831 21.5853 250.807 21.375C250.77 21.1771 250.683 20.9235 250.547 20.6143L251.716 16.2725C251.815 15.9632 251.932 15.8086 252.068 15.8086C252.266 15.8086 252.433 15.9508 252.569 16.2354C252.705 16.5199 252.817 16.891 252.903 17.3486C252.99 17.8063 253.058 18.3073 253.107 18.8516C253.157 19.3958 253.182 19.9154 253.182 20.4102C253.182 21.2884 253.095 21.9502 252.922 22.3955L251.512 26.3477C251.438 26.5456 251.326 26.6878 251.178 26.7744C251.029 26.861 250.887 26.9043 250.751 26.9043H249.137C248.221 26.9043 247.516 26.7002 247.021 26.292C246.539 25.8838 246.193 25.3643 245.982 24.7334L245.686 26.4033C245.648 26.5641 245.574 26.6878 245.463 26.7744C245.339 26.861 245.092 26.9043 244.721 26.9043H240.156C239.278 26.9043 238.653 26.6693 238.282 26.1992C237.911 25.7292 237.676 25.2406 237.577 24.7334L236.761 26.9043H230.638C230.192 26.9043 229.827 26.762 229.543 26.4775C229.258 26.193 229.116 25.8281 229.116 25.3828V23.5645C229.116 23.1191 229.258 22.7542 229.543 22.4697C229.827 22.1852 230.192 22.043 230.638 22.043H235.61L236.26 19.6123L239.952 16.625C240.088 16.5508 240.193 16.5137 240.268 16.5137H240.342L240.268 17.6084Z" fill="white"/>
<path d="M292.777 19.4824C291.8 18.6536 290.94 17.8249 290.198 16.9961C290.94 16.1178 291.788 15.2396 292.74 14.3613C293.717 15.1901 294.577 16.0189 295.319 16.8477C294.466 17.8372 293.618 18.7155 292.777 19.4824ZM284.91 35.2354C286.803 35.2354 288.695 35.1302 290.588 34.9199C291.38 32.4089 291.775 30.875 291.775 30.3184C291.775 27.9062 290.619 26.2858 288.306 25.457C286.722 24.9128 284.013 24.6406 280.179 24.6406C275.639 24.6406 271.161 25.0921 266.745 25.9951C262.391 26.8734 260.214 27.7578 260.214 28.6484C260.214 29.1432 260.82 29.7988 262.032 30.6152C262.626 31.0234 263.411 31.4564 264.389 31.9141C265.378 32.3717 266.609 32.8356 268.081 33.3057C269.565 33.7757 271.792 34.2148 274.761 34.623C277.742 35.0312 281.125 35.2354 284.91 35.2354ZM311.981 26.5703C311.969 26.8919 311.938 27.2135 311.889 27.5352V27.6094H311.87C311.833 27.8939 311.784 28.1784 311.722 28.4629C311.709 28.5371 311.691 28.6175 311.666 28.7041C311.431 29.5452 311.202 30.1823 310.979 30.6152C310.769 31.0605 310.559 31.444 310.349 31.7656C310.151 32.0872 309.965 32.3532 309.792 32.5635C309.656 32.7367 309.359 33.0459 308.901 33.4912C308.444 33.9242 307.794 34.4128 306.953 34.957L306.879 34.9941C306.001 35.5508 304.887 36.126 303.539 36.7197C302.191 37.3258 300.552 37.8825 298.622 38.3896C296.692 38.8968 294.46 39.3112 291.924 39.6328C291.479 39.6947 291.021 39.7441 290.551 39.7812L288.844 43.752C287.607 46.6341 286.815 48.0752 286.469 48.0752C286.32 48.0752 286.246 47.9515 286.246 47.7041C286.246 47.4196 287.217 44.8219 289.159 39.9111C287.341 40.0472 285.368 40.1152 283.24 40.1152C280.222 40.1152 277.507 39.9668 275.095 39.6699C272.683 39.373 270.574 39.0514 268.768 38.7051C266.962 38.3711 265.471 38.0062 264.296 37.6104C263.121 37.2145 262.273 36.8991 261.754 36.6641C261.544 36.5775 261.148 36.3981 260.566 36.126C259.206 35.3219 258.222 34.4251 257.616 33.4355C257.084 32.5944 256.818 31.7656 256.818 30.9492C256.818 30.8132 256.825 30.6833 256.837 30.5596C256.837 27.2816 259.125 24.7025 263.702 22.8223C268.069 21.0286 273.808 20.1318 280.921 20.1318C286.512 20.1318 290.198 20.5833 291.979 21.4863C293.761 22.377 294.651 23.8799 294.651 25.9951C294.651 27.0589 294.416 28.4134 293.946 30.0586C293.6 31.2214 293.241 32.3841 292.87 33.5469L292.518 34.6787C294.608 34.4684 296.321 34.2148 297.657 33.918C299.364 33.5345 300.88 33.1139 302.203 32.6562C303.057 32.3717 303.836 32.0811 304.541 31.7842C304.9 31.6357 305.246 31.4873 305.58 31.3389C306.508 30.9059 307.25 30.5163 307.807 30.1699C308.376 29.8359 308.864 29.4401 309.272 28.9824C309.631 28.5866 309.811 28.1969 309.811 27.8135C309.811 27.764 309.804 27.7083 309.792 27.6465C309.52 26.2982 309.18 25.123 308.771 24.1211C308.376 23.1315 307.868 22.0924 307.25 21.0039L308.771 16.7549C308.883 16.5199 309 16.4023 309.124 16.4023C309.26 16.4023 309.384 16.5013 309.495 16.6992C309.755 17.1693 310.033 17.7259 310.33 18.3691C310.615 19.0124 310.881 19.7174 311.128 20.4844C311.227 20.806 311.32 21.1523 311.406 21.5234C311.505 21.8945 311.647 22.5439 311.833 23.4717C311.957 24.1273 312.019 24.8324 312.019 25.5869C312.019 25.9085 312.006 26.2363 311.981 26.5703Z" fill="white"/>
<path d="M317.548 22.043H320.275V26.9043H314.746L313.336 10.4463L315.618 6.49414C315.68 6.35807 315.779 6.29004 315.915 6.29004C316.088 6.29004 316.193 6.41992 316.23 6.67969L317.548 22.043Z" fill="white"/>
<path d="M326.825 12.2646C325.848 11.4359 324.988 10.6071 324.246 9.77832C324.988 8.90007 325.836 8.02181 326.788 7.14355C327.765 7.97233 328.625 8.80111 329.367 9.62988C328.514 10.6195 327.666 11.4977 326.825 12.2646ZM338.57 24.2139C337.729 24.152 336.975 24.084 336.307 24.0098C335.725 23.9479 335.187 23.8984 334.692 23.8613C334.21 23.8242 333.95 23.8057 333.913 23.8057C332.874 23.8057 331.86 24.0345 330.87 24.4922C329.893 24.9499 328.934 25.4508 327.994 25.9951C327.685 26.1683 327.252 26.36 326.695 26.5703C326.139 26.793 325.372 26.9043 324.395 26.9043H320.795C320.35 26.9043 319.985 26.762 319.7 26.4775C319.416 26.193 319.273 25.8281 319.273 25.3828V23.5645C319.273 23.1191 319.416 22.7542 319.7 22.4697C319.985 22.1852 320.35 22.043 320.795 22.043H326.473C326.906 22.043 327.233 22.0244 327.456 21.9873C327.679 21.9502 327.87 21.9007 328.031 21.8389C328.402 21.7028 328.712 21.5915 328.959 21.5049C329.194 21.4183 329.509 21.276 329.905 21.0781C329.101 20.806 328.402 20.5524 327.809 20.3174C327.215 20.0824 326.664 19.8783 326.157 19.7051C325.65 19.5443 325.174 19.4082 324.729 19.2969C324.271 19.1979 323.751 19.1484 323.17 19.1484C322.972 19.1484 322.762 19.1608 322.539 19.1855C322.316 19.1979 322.075 19.2227 321.815 19.2598C321.605 19.2598 321.5 19.1732 321.5 19C321.5 18.9629 321.549 18.8763 321.648 18.7402C321.76 18.5918 321.914 18.3939 322.112 18.1465C322.521 17.6393 323.213 16.724 324.19 15.4004C324.463 15.0664 324.741 14.7819 325.025 14.5469C325.31 14.3118 325.656 14.1943 326.064 14.1943C326.633 14.1943 327.283 14.4788 328.013 15.0479C328.743 15.6169 329.639 16.2601 330.703 16.9775C331.767 17.6826 333.041 18.3506 334.525 18.9814C336.01 19.5999 337.797 19.9772 339.888 20.1133C340.16 20.1133 340.296 20.2308 340.296 20.4658C340.296 20.4906 340.271 20.5524 340.222 20.6514C340.185 20.7503 340.117 20.8926 340.018 21.0781C339.832 21.4492 339.64 21.8698 339.442 22.3398C339.17 22.8841 338.88 23.5088 338.57 24.2139Z" fill="white"/>
<path d="M354.268 23.1562C354.268 24.2324 353.989 25.4137 353.433 26.7002C352.876 27.9867 352.202 29.1803 351.41 30.2812C350.606 31.3698 349.796 32.2852 348.979 33.0273C348.151 33.7695 347.483 34.1406 346.976 34.1406C346.765 34.1406 346.339 34.0355 345.695 33.8252C345.064 33.6025 344.366 33.3366 343.599 33.0273C342.844 32.7305 342.096 32.4398 341.354 32.1553C340.611 31.8584 339.999 31.6296 339.517 31.4688C339.183 31.3945 339.016 31.2214 339.016 30.9492C339.016 30.6895 339.152 30.5596 339.424 30.5596C339.795 30.6214 340.166 30.6771 340.537 30.7266C340.908 30.776 341.279 30.8008 341.65 30.8008C343.679 30.8008 345.603 30.2627 347.421 29.1865C349.252 28.098 350.891 26.5456 352.338 24.5293C351.967 23.8118 351.577 23.2181 351.169 22.748C350.773 22.278 350.285 21.7028 349.703 21.0225L350.464 16.5693C350.538 16.2972 350.643 16.1611 350.779 16.1611C350.903 16.1611 350.983 16.1982 351.021 16.2725C351.354 16.6436 351.713 17.0827 352.097 17.5898C352.468 18.097 352.808 18.6351 353.117 19.2041C353.439 19.7731 353.711 20.3978 353.934 21.0781C354.156 21.7585 354.268 22.4512 354.268 23.1562Z" fill="white"/>
<path d="M365.679 30.0811C365.666 30.1553 365.629 30.2728 365.567 30.4336C365.506 30.6068 365.438 30.749 365.363 30.8604C365.314 30.9469 365.202 31.1139 365.029 31.3613C364.868 31.6087 364.646 31.8809 364.361 32.1777C363.298 32.487 362.228 32.8704 361.151 33.3281C360.075 33.7982 359.024 34.2868 357.997 34.7939C358.034 34.5837 358.176 34.2682 358.424 33.8477C358.548 33.625 358.671 33.4209 358.795 33.2354C358.931 33.0622 359.067 32.9261 359.203 32.8271C359.426 32.6416 359.828 32.4004 360.409 32.1035C360.991 31.819 361.615 31.5407 362.283 31.2686C362.964 30.9964 363.613 30.7428 364.231 30.5078C364.862 30.2852 365.345 30.1429 365.679 30.0811Z" fill="white"/>
<path d="M368.629 21.4492C368.629 21.4863 368.604 21.5605 368.555 21.6719C368.518 21.7832 368.462 21.9378 368.388 22.1357C368.215 22.5192 368.029 22.9521 367.831 23.4346C367.621 23.9046 367.423 24.3499 367.237 24.7705C367.052 25.1911 366.94 25.4508 366.903 25.5498C366.841 25.723 366.761 25.8652 366.662 25.9766C366.563 26.1003 366.378 26.1621 366.105 26.1621H359.259C358.752 26.1621 358.35 26.0632 358.053 25.8652C357.743 25.6549 357.589 25.2653 357.589 24.6963V20.3359C357.589 20.138 357.614 20.0081 357.663 19.9463C357.713 19.8968 357.774 19.8721 357.849 19.8721C358.009 19.8721 358.127 19.9525 358.201 20.1133C358.263 20.2617 358.343 20.4225 358.442 20.5957C358.554 20.7565 358.708 20.9173 358.906 21.0781C359.104 21.2266 359.407 21.3008 359.815 21.3008H366.05C365.506 20.3854 364.881 19.4948 364.176 18.6289C363.471 17.7754 362.438 16.8044 361.077 15.7158L362.302 11.207C362.339 11.0462 362.425 10.9658 362.562 10.9658C362.698 10.9658 362.815 11.0153 362.914 11.1143C364.027 12.1904 364.955 13.2604 365.697 14.3242C366.439 15.388 367.027 16.3776 367.46 17.293C367.905 18.2083 368.215 19.0309 368.388 19.7607C368.549 20.4782 368.629 21.041 368.629 21.4492Z" fill="white"/>
<path d="M374.14 22.043H376.867V26.9043H371.338L369.928 10.4463L372.21 6.49414C372.272 6.35807 372.371 6.29004 372.507 6.29004C372.68 6.29004 372.785 6.41992 372.822 6.67969L374.14 22.043Z" fill="white"/>
<path d="M381.283 11.7822C380.306 10.9535 379.446 10.1247 378.704 9.2959C379.446 8.41764 380.294 7.53939 381.246 6.66113C382.223 7.48991 383.083 8.31868 383.825 9.14746C382.972 10.137 382.124 11.0153 381.283 11.7822ZM388.037 20.7256C388.037 21.0225 387.975 21.3997 387.852 21.8574C387.74 22.3151 387.592 22.7975 387.406 23.3047C387.221 23.8118 387.023 24.3252 386.812 24.8447C386.615 25.3766 386.448 25.859 386.312 26.292C386.213 26.7002 385.91 26.9043 385.402 26.9043H376.886C376.44 26.9043 376.076 26.762 375.791 26.4775C375.507 26.193 375.364 25.8281 375.364 25.3828V23.5645C375.364 23.1191 375.507 22.7542 375.791 22.4697C376.076 22.1852 376.44 22.043 376.886 22.043H385.402C385.328 21.6719 385.223 21.2884 385.087 20.8926C384.951 20.5091 384.815 20.1504 384.679 19.8164C384.555 19.4453 384.388 19.0742 384.178 18.7031L385.699 14.4912C385.798 14.2191 385.916 14.083 386.052 14.083C386.188 14.083 386.305 14.1696 386.404 14.3428C386.577 14.6396 386.757 15.0293 386.942 15.5117C387.128 15.9818 387.307 16.5137 387.48 17.1074C387.641 17.6888 387.771 18.2949 387.87 18.9258C387.981 19.5443 388.037 20.1442 388.037 20.7256Z" fill="white"/>
</g>
<g filter="url(#filter1_d_100_2)">
<path d="M12.9434 15.5635C13.5781 16.3057 14.2471 16.9258 14.9502 17.4238C14.9502 17.4238 14.9502 17.5557 14.9502 17.8193C14.5303 18.2588 13.8809 18.9082 13.002 19.7676C12.9043 19.8066 12.7969 19.792 12.6797 19.7236C12.5723 19.6553 12.4697 19.5869 12.3721 19.5186C11.874 19.0986 11.332 18.5615 10.7461 17.9072C10.707 17.79 10.7363 17.6875 10.834 17.5996C10.9414 17.502 11.0439 17.4141 11.1416 17.3359C11.3662 17.1113 11.6543 16.7793 12.0059 16.3398C12.2109 16.1445 12.5234 15.8857 12.9434 15.5635ZM8.05078 24.2061L8.08008 24.2646C9.64258 22.7803 11.0537 22.1113 12.3135 22.2578C12.9482 22.3359 13.417 22.6729 13.7197 23.2686C13.7588 23.4932 13.7783 23.7129 13.7783 23.9277C13.7783 24.9531 13.251 26.0859 12.1963 27.3262C11.4932 28.1465 10.6436 28.7568 9.64746 29.1572C8.10449 29.5771 6.57129 29.7871 5.04785 29.7871C4.53027 29.7871 4.0127 29.7578 3.49512 29.6992C3.34863 29.6992 3.1875 29.626 3.01172 29.4795C2.99219 29.4404 2.99707 29.3818 3.02637 29.3037C3.05566 29.2256 3.07031 29.1768 3.07031 29.1572C3.23633 29.04 3.46582 28.9375 3.75879 28.8496C4.13965 28.752 4.37891 28.6836 4.47656 28.6445C4.89648 28.2832 5.61914 27.4141 6.64453 26.0371C7.00586 24.9727 7.21582 23.6934 7.27441 22.1992C7.27441 20.9199 7.28418 19.626 7.30371 18.3174C7.32324 17.4775 7.34277 16.9697 7.3623 16.7939C7.4209 16.2373 7.57227 15.7783 7.81641 15.417C7.875 15.2705 8.24609 14.4111 8.92969 12.8389C8.96875 12.7119 9.04688 12.6387 9.16406 12.6191C9.28125 12.5801 9.35938 12.624 9.39844 12.751C9.41797 12.9072 9.39355 13.1465 9.3252 13.4688C9.25684 13.7812 9.22266 14.001 9.22266 14.1279C9.08594 15.124 8.99805 16.3936 8.95898 17.9365C8.87109 19.7334 8.79785 20.9932 8.73926 21.7158C8.62207 22.2529 8.39258 23.083 8.05078 24.2061ZM11.8594 24.6016C11.6055 24.1719 11.2148 24.0107 10.6875 24.1182C9.76953 24.2939 8.89062 24.8408 8.05078 25.7588C7.36719 26.5986 6.68848 27.4287 6.01465 28.249C7.01074 28.0342 8.01172 27.8145 9.01758 27.5898C10.1309 27.248 11 26.7402 11.625 26.0664C11.8789 25.6074 12.0059 25.2656 12.0059 25.041C12.0059 24.8652 11.957 24.7188 11.8594 24.6016Z" fill="white"/>
<path d="M25.2334 16.501C23.9932 16.1982 23.124 15.5537 22.626 14.5674C23.8467 13.1318 24.5254 12.3652 24.6621 12.2676C25.4629 12.9609 26.3271 13.6201 27.2549 14.2451L25.2334 16.501ZM30.9316 11.0957C30.9316 11.1934 30.9414 13.083 30.9609 16.7646C30.9902 19.0889 30.8633 20.9883 30.5801 22.4629C30.3945 23.4395 29.9014 24.3623 29.1006 25.2314C28.3096 26.0908 27.4209 26.6475 26.4346 26.9014C25.7412 27.0869 24.9502 27.0967 24.0615 26.9307C23.4268 27.6924 22.958 28.2148 22.6553 28.498C22.0596 29.0742 21.4785 29.4746 20.9121 29.6992C20.1797 30.0117 19.4863 29.9629 18.832 29.5527C18.1875 29.1426 17.7334 28.4883 17.4697 27.5898C17.3916 27.3359 17.2402 26.5352 17.0156 25.1875L16.9277 22.8291L16.8691 17.7607C16.8496 17.4189 16.8398 16.8965 16.8398 16.1934C16.8203 15.5781 16.8496 15.0801 16.9277 14.6992C17.123 14.1328 17.3818 13.2832 17.7041 12.1504C17.8506 12.0234 17.9336 11.96 17.9531 11.96C18.0508 11.96 18.1582 11.999 18.2754 12.0771C18.0996 13.9229 18.0117 15.7148 18.0117 17.4531C18.0117 19.5918 18.1387 21.6426 18.3926 23.6055C18.4316 24.6406 18.9053 25.3584 19.8135 25.7588C20.0869 25.8857 20.4043 25.9492 20.7656 25.9492C21.3027 25.9492 21.835 25.8076 22.3623 25.5244C22.5381 25.4268 22.5381 25.3145 22.3623 25.1875L22.3037 25.1582L22.2744 25.1289C22.0889 24.6309 21.9961 24.123 21.9961 23.6055C21.9961 22.3066 22.5088 21.0859 23.5342 19.9434C23.9736 19.4453 24.5107 19.1963 25.1455 19.1963C25.3896 19.1963 25.6191 19.2354 25.834 19.3135C26.4004 19.5381 26.752 19.9287 26.8887 20.4854C26.9668 20.7881 27.0059 21.0762 27.0059 21.3496C27.0059 22.4141 26.459 23.708 25.3652 25.2314C25.5801 25.2314 25.8486 25.207 26.1709 25.1582C28.1924 24.8848 29.3398 24.0449 29.6133 22.6387C29.7988 21.7598 29.8428 20.6709 29.7451 19.3721C29.5791 17.2334 29.4766 15.3926 29.4375 13.8496C29.418 12.9512 29.5059 12.2432 29.7012 11.7256C29.8477 11.3643 30.1699 10.6025 30.668 9.44043C30.7266 9.34277 30.7949 9.29395 30.873 9.29395C30.9805 9.31348 31.0537 9.37207 31.0928 9.46973C31.0928 9.6748 31.0732 9.94824 31.0342 10.29C30.9658 10.6904 30.9316 10.959 30.9316 11.0957ZM23.7686 21.4375C23.1924 21.8184 22.9336 22.2529 22.9922 22.7412C23.1094 23.7568 23.4463 24.3867 24.0029 24.6309C24.6475 24.2891 25.1504 23.8691 25.5117 23.3711C25.707 22.9512 25.8047 22.5996 25.8047 22.3164C25.8047 22.0918 25.7559 21.9014 25.6582 21.7451C25.4336 21.3643 25.0918 21.1738 24.6328 21.1738C24.3203 21.1738 24.0322 21.2617 23.7686 21.4375Z" fill="white"/>
<path d="M35.8242 13.8789C35.7559 14.2402 35.6826 14.7725 35.6045 15.4756C35.5264 16.374 35.4775 17.6143 35.458 19.1963C35.458 21.0127 35.4385 22.2822 35.3994 23.0049C35.3213 24.5479 34.9014 26.1592 34.1396 27.8389C33.9932 28.1514 33.8613 28.3076 33.7441 28.3076C33.6855 28.3076 33.627 28.2881 33.5684 28.249C33.4316 28.1709 33.3828 27.9902 33.4219 27.707C33.5781 27.1699 33.7051 25.8223 33.8027 23.6641C33.666 21.9258 33.6172 19.9775 33.6562 17.8193C33.9785 16.7354 34.54 15.3926 35.3408 13.791C35.5361 13.6738 35.6973 13.7031 35.8242 13.8789Z" fill="white"/>
<path d="M50.4287 21.9795C50.6143 22.458 50.707 22.9805 50.707 23.5469C50.707 24.3867 50.4873 25.3877 50.0479 26.5498C49.208 28.7861 48.0996 29.8848 46.7227 29.8457C46.0977 29.748 45.6533 29.3574 45.3896 28.6738C45.3506 28.4102 45.3311 28.1416 45.3311 27.8682C45.3311 27.2041 45.6631 25.8809 46.3271 23.8984C46.21 23.8789 46.0391 23.8008 45.8145 23.6641C45.9512 23.0488 46.083 22.5166 46.21 22.0674C46.2686 21.6279 46.3857 21.0078 46.5615 20.207C46.7275 20.1094 47.1768 20.0996 47.9092 20.1777C49.0713 20.3047 49.9111 20.9053 50.4287 21.9795ZM48.9053 24.8359C48.5244 24.3184 47.9629 24.04 47.2207 24.001C46.6055 25.2412 46.3467 26.3496 46.4443 27.3262C46.5615 27.707 46.7617 27.9463 47.0449 28.0439C47.1426 28.0635 47.2451 28.0732 47.3525 28.0732C47.7432 28.0732 48.2998 27.7119 49.0225 26.9893C49.1689 26.7158 49.2422 26.418 49.2422 26.0957C49.2422 25.6367 49.1299 25.2168 48.9053 24.8359ZM51.9521 10.4072C51.7959 10.8857 51.4102 11.7061 50.7949 12.8682C50.6875 12.8682 50.5459 12.8682 50.3701 12.8682C49.7061 12.8877 49.1445 13.2441 48.6855 13.9375C48.3242 14.543 47.9775 15.1436 47.6455 15.7393C47.001 16.8623 46.1611 17.4141 45.126 17.3945C44.999 17.3555 44.8379 17.2773 44.6426 17.1602C44.8574 16.5156 45.2041 15.7051 45.6826 14.7285C45.9854 14.7285 46.4199 14.6455 46.9863 14.4795C47.6211 14.2061 48.2363 13.3955 48.832 12.0479C49.3984 10.876 50.1406 10.2363 51.0586 10.1289C51.5566 10.1289 51.8545 10.2217 51.9521 10.4072Z" fill="white"/>
<path d="M100.351 7.19922C99.1104 6.91602 98.2412 6.27637 97.7432 5.28027C98.9834 3.85449 99.667 3.09277 99.7939 2.99512C100.585 3.69824 101.444 4.35742 102.372 4.97266L100.351 7.19922ZM103.031 14.875C101.146 15.6562 99.4131 16.7744 97.8311 18.2295C96.9131 18.835 96.1172 19.1377 95.4434 19.1377C95.0039 19.1377 94.623 19.0254 94.3008 18.8008C94.2227 18.7422 94.042 18.5811 93.7588 18.3174C92.8018 18.9229 91.4102 19.7139 89.584 20.6904C86.4492 22.1357 83.5195 23.1855 80.7949 23.8398C78.4609 24.4453 75.7607 24.7676 72.6943 24.8066C68.915 24.8457 64.9746 24.2158 60.873 22.917C60.5117 23.5713 60.0332 24.6406 59.4375 26.125C58.9199 27.3848 58.5 28.2734 58.1777 28.791C58.002 28.9961 57.4014 29.2354 56.376 29.5088C55.6143 29.6162 54.4668 29.7676 52.9336 29.9629C52.8457 29.9629 52.7236 29.9043 52.5674 29.7871C52.4893 29.6406 52.5381 29.4697 52.7139 29.2744C53.8174 28.6787 55.4189 27.7266 57.5186 26.418C58.7393 25.5781 59.9307 23.4199 61.0928 19.9434C61.1904 19.6211 61.3076 19.4795 61.4443 19.5186C62.0498 19.6846 63.0801 19.9678 64.5352 20.3682C65.7754 20.6611 67.1475 20.9102 68.6514 21.1152C69.8525 21.2715 71.1904 21.3936 72.665 21.4814C75.5459 21.6182 78.1484 21.4961 80.4727 21.1152C84.8672 20.3926 88.3975 19.3623 91.0635 18.0244C91.4639 17.8291 92.1133 17.4287 93.0117 16.8232C93.6465 16.4229 93.9639 16.2227 93.9639 16.2227C94.3838 16.9258 94.8428 17.2871 95.3408 17.3066C96.2881 17.3457 97.1816 17.1064 98.0215 16.5889C98.4805 16.2666 99.4473 15.5928 100.922 14.5674C100.883 14.5479 99.8525 13.752 97.8311 12.1797C97.6553 12.0137 97.4355 11.9307 97.1719 11.9307C96.918 11.9307 96.6201 12.0332 96.2783 12.2383C96.2002 12.2969 95.9121 12.5264 95.4141 12.9268C95.2285 12.9658 95.0771 12.8828 94.96 12.6777C94.999 12.4434 95.1113 12.2188 95.2969 12.0039C95.4922 11.7793 95.6777 11.5742 95.8535 11.3887C96.7129 10.6758 97.4258 10.3193 97.9922 10.3193C98.6465 10.3193 99.5547 10.8564 100.717 11.9307C101.381 12.4092 102.411 13.0586 103.808 13.8789C103.866 13.9863 103.905 14.1572 103.925 14.3916C103.671 14.5771 103.373 14.7383 103.031 14.875ZM80.4727 31.457C79.75 31.125 78.9395 30.5586 78.041 29.7578L76.5029 31.457C75.2822 31.1836 74.4131 30.5342 73.8955 29.5088C75.1162 28.0537 75.7852 27.2676 75.9023 27.1504C76.5859 27.7461 77.3672 28.3418 78.2461 28.9375L80.0771 27.0479C81.2393 28.0146 82.1084 28.6982 82.6846 29.0986C81.6689 30.1729 80.9316 30.959 80.4727 31.457Z" fill="white"/>
<path d="M110.224 12.9561L110.399 13.0146C110.966 13.5518 111.659 14.123 112.479 14.7285C112.353 15.002 112.152 15.3145 111.879 15.666C111.615 16.0176 111.352 16.3447 111.088 16.6475C110.99 16.7451 110.888 16.8574 110.78 16.9844C110.673 17.1016 110.546 17.1406 110.399 17.1016C109.901 16.8379 109.53 16.5254 109.286 16.1641C108.954 15.9883 108.627 15.7002 108.305 15.2998C108.959 14.3525 109.599 13.5713 110.224 12.9561ZM111.029 19.5479C112.016 20.2705 112.509 21.2812 112.509 22.5801C112.509 23.4004 112.265 24.333 111.776 25.3779C111.337 26.2568 110.888 27.126 110.429 27.9854C110.155 28.542 109.477 28.8838 108.393 29.0107C107.709 29.167 106.659 29.3672 105.243 29.6113C105.204 29.6309 105.136 29.5479 105.038 29.3623C105.155 29.1084 105.395 28.918 105.756 28.791C106.371 28.5566 106.679 28.4395 106.679 28.4395C107.558 28.0391 108.827 27.3457 110.487 26.3594C110.829 25.9785 110.951 25.5 110.854 24.9238C110.775 23.9863 110.077 23.1758 108.759 22.4922C108.739 22.4141 108.729 22.3262 108.729 22.2285C108.729 22.043 108.798 21.7939 108.935 21.4814C109.071 21.1592 109.149 20.9346 109.169 20.8076C109.315 20.4561 109.555 19.9482 109.887 19.2842C109.975 19.1279 110.077 19.0498 110.194 19.0498C110.292 19.0498 110.443 19.1279 110.648 19.2842C110.863 19.4404 110.99 19.5283 111.029 19.5479Z" fill="white"/>
<path d="M126.923 24.1475C126.786 25.124 126.269 26.4229 125.37 28.0439C125.126 28.4834 124.706 28.7812 124.11 28.9375C123.612 29.0645 123.1 29.1963 122.572 29.333C122.191 29.4502 121.615 29.6211 120.844 29.8457C120.658 29.8457 120.546 29.7871 120.507 29.6699C120.507 29.5234 120.639 29.3721 120.902 29.2158C121.703 28.7373 122.504 28.2686 123.305 27.8096C124.184 27.2432 124.931 26.6719 125.546 26.0957C125.731 25.8516 125.79 25.5195 125.722 25.0996C125.604 24.8066 125.468 24.6064 125.312 24.499C125.106 24.5381 124.916 24.5576 124.74 24.5576C124.018 24.5576 123.476 24.3086 123.114 23.8105C122.978 23.5762 122.909 23.3271 122.909 23.0635C122.909 22.7803 122.997 22.4287 123.173 22.0088C123.339 21.6963 123.49 21.3643 123.627 21.0127C123.764 20.6611 123.896 20.2852 124.022 19.8848C124.237 19.4453 124.525 19.1572 124.887 19.0205C125.551 18.8936 126.083 19.1621 126.483 19.8262C126.923 20.5684 127.143 21.4473 127.143 22.4629C127.143 23 127.069 23.5615 126.923 24.1475Z" fill="white"/>
<path d="M134.818 20.9102C134.916 21.3105 134.965 21.7207 134.965 22.1406C134.965 22.9609 134.755 23.8789 134.335 24.8945C134.296 24.9727 133.876 25.8418 133.075 27.502C132.978 27.7266 132.748 28.0098 132.387 28.3516C131.449 28.6445 130.009 29.0205 128.065 29.4795C127.929 29.5674 127.831 29.499 127.772 29.2744C127.812 29.2158 128.158 28.957 128.812 28.498C129.232 28.1953 129.965 27.7656 131.01 27.209C131.947 26.7305 132.655 26.291 133.134 25.8906C133.456 25.5293 133.529 24.9873 133.354 24.2646C133.129 23.4053 132.436 22.6973 131.273 22.1406C131.195 22.0332 131.195 21.9111 131.273 21.7744C131.332 21.6572 131.396 21.5352 131.464 21.4082C131.679 20.6562 131.967 19.748 132.328 18.6836C132.865 18.7227 133.373 18.9717 133.852 19.4307C134.271 19.8506 134.594 20.3438 134.818 20.9102Z" fill="white"/>
<path d="M137.953 29.3623C137.592 29.4404 137.001 29.5527 136.181 29.6992C136.005 29.6992 135.897 29.6357 135.858 29.5088C135.839 29.333 135.976 29.167 136.269 29.0107C137.03 28.5225 137.792 28.0391 138.554 27.5605C139.452 26.9844 140.18 26.4473 140.736 25.9492C141.322 25.2852 141.874 24.3135 142.392 23.0342C142.772 21.9502 143.153 20.8711 143.534 19.7969C143.593 19.6309 143.725 19.5479 143.93 19.5479C144.105 19.5479 144.193 19.6309 144.193 19.7969C144.232 20.1777 144.071 21.0469 143.71 22.4043C143.095 24.7676 142.357 26.6768 141.498 28.1318C141.176 28.6689 140.644 29.001 139.901 29.1279C139.247 29.2061 138.598 29.2842 137.953 29.3623Z" fill="white"/>
<path d="M149.232 13.8789C149.164 14.2402 149.091 14.7725 149.013 15.4756C148.935 16.374 148.886 17.6143 148.866 19.1963C148.866 21.0127 148.847 22.2822 148.808 23.0049C148.729 24.5479 148.31 26.1592 147.548 27.8389C147.401 28.1514 147.27 28.3076 147.152 28.3076C147.094 28.3076 147.035 28.2881 146.977 28.249C146.84 28.1709 146.791 27.9902 146.83 27.707C146.986 27.1699 147.113 25.8223 147.211 23.6641C147.074 21.9258 147.025 19.9775 147.064 17.8193C147.387 16.7354 147.948 15.3926 148.749 13.791C148.944 13.6738 149.105 13.7031 149.232 13.8789Z" fill="white"/>
</g>
<defs>
<filter id="filter0_d_100_2" x="161.808" y="0" width="230.229" height="56.0752" filterUnits="userSpaceOnUse" color-interpolation-filters="sRGB">
<feFlood flood-opacity="0" result="BackgroundImageFix"/>
<feColorMatrix in="SourceAlpha" type="matrix" values="0 0 0 0 0 0 0 0 0 0 0 0 0 0 0 0 0 0 127 0" result="hardAlpha"/>
<feOffset dy="4"/>
<feGaussianBlur stdDeviation="2"/>
<feComposite in2="hardAlpha" operator="out"/>
<feColorMatrix type="matrix" values="0 0 0 0 0 0 0 0 0 0 0 0 0 0 0 0 0 0 0.67 0"/>
<feBlend mode="normal" in2="BackgroundImageFix" result="effect1_dropShadow_100_2"/>
<feBlend mode="normal" in="SourceGraphic" in2="effect1_dropShadow_100_2" result="shape"/>
</filter>
<filter id="filter1_d_100_2" x="0" y="1.99512" width="152.232" height="34.4619" filterUnits="userSpaceOnUse" color-interpolation-filters="sRGB">
<feFlood flood-opacity="0" result="BackgroundImageFix"/>
<feColorMatrix in="SourceAlpha" type="matrix" values="0 0 0 0 0 0 0 0 0 0 0 0 0 0 0 0 0 0 127 0" result="hardAlpha"/>
<feOffset dy="2"/>
<feGaussianBlur stdDeviation="1.5"/>
<feComposite in2="hardAlpha" operator="out"/>
<feColorMatrix type="matrix" values="0 0 0 0 0.0980392 0 0 0 0 0.101961 0 0 0 0 0.0745098 0 0 0 0.67 0"/>
<feBlend mode="normal" in2="BackgroundImageFix" result="effect1_dropShadow_100_2"/>
<feBlend mode="normal" in="SourceGraphic" in2="effect1_dropShadow_100_2" result="shape"/>
</filter>
</defs>
</svg>
