<svg width="32" height="21" viewBox="0 0 32 21" fill="none" xmlns="http://www.w3.org/2000/svg">
<path d="M1.75001 21C1.25417 21 0.83884 20.832 0.504006 20.496C0.169173 20.16 0.0011727 19.7447 6.03448e-06 19.25C-0.00116063 18.7553 0.16684 18.34 0.504006 18.004C0.841173 17.668 1.25651 17.5 1.75001 17.5H29.75C30.2458 17.5 30.6618 17.668 30.9978 18.004C31.3338 18.34 31.5012 18.7553 31.5 19.25C31.4988 19.7447 31.3308 20.1606 30.996 20.4977C30.6612 20.8349 30.2458 21.0023 29.75 21H1.75001ZM1.75001 12.25C1.25417 12.25 0.83884 12.082 0.504006 11.746C0.169173 11.41 0.0011727 10.9947 6.03448e-06 10.5C-0.00116063 10.0053 0.16684 9.59 0.504006 9.254C0.841173 8.918 1.25651 8.75 1.75001 8.75H29.75C30.2458 8.75 30.6618 8.918 30.9978 9.254C31.3338 9.59 31.5012 10.0053 31.5 10.5C31.4988 10.9947 31.3308 11.4106 30.996 11.7478C30.6612 12.0849 30.2458 12.2523 29.75 12.25H1.75001ZM1.75001 3.5C1.25417 3.5 0.83884 3.332 0.504006 2.996C0.169173 2.66 0.0011727 2.24467 6.03448e-06 1.75C-0.00116063 1.25533 0.16684 0.84 0.504006 0.504C0.841173 0.168 1.25651 0 1.75001 0H29.75C30.2458 0 30.6618 0.168 30.9978 0.504C31.3338 0.84 31.5012 1.25533 31.5 1.75C31.4988 2.24467 31.3308 2.66058 30.996 2.99775C30.6612 3.33492 30.2458 3.50233 29.75 3.5H1.75001Z" fill="#525545"/>
</svg>
