<svg width="20" height="20" viewBox="0 0 20 20" fill="none" xmlns="http://www.w3.org/2000/svg">
<path d="M7.04167 14.0833C5.07361 14.0833 3.40817 13.4016 2.04533 12.038C0.682501 10.6744 0.000722795 9.009 5.73192e-07 7.04167C-0.000721649 5.07433 0.681056 3.40889 2.04533 2.04533C3.40961 0.681778 5.07506 0 7.04167 0C9.00828 0 10.6741 0.681778 12.0391 2.04533C13.4041 3.40889 14.0855 5.07433 14.0833 7.04167C14.0833 7.83611 13.9569 8.58542 13.7042 9.28958C13.4514 9.99375 13.1083 10.6167 12.675 11.1583L18.7417 17.225C18.9403 17.4236 19.0396 17.6764 19.0396 17.9833C19.0396 18.2903 18.9403 18.5431 18.7417 18.7417C18.5431 18.9403 18.2903 19.0396 17.9833 19.0396C17.6764 19.0396 17.4236 18.9403 17.225 18.7417L11.1583 12.675C10.6167 13.1083 9.99375 13.4514 9.28958 13.7042C8.58542 13.9569 7.83611 14.0833 7.04167 14.0833ZM7.04167 11.9167C8.39583 11.9167 9.54706 11.4429 10.4953 10.4953C11.4436 9.54778 11.9174 8.39656 11.9167 7.04167C11.9159 5.68678 11.4422 4.53592 10.4953 3.58908C9.5485 2.64225 8.39728 2.16811 7.04167 2.16667C5.68606 2.16522 4.5352 2.63936 3.58908 3.58908C2.64297 4.53881 2.16883 5.68967 2.16667 7.04167C2.1645 8.39367 2.63864 9.54489 3.58908 10.4953C4.53953 11.4458 5.69039 11.9196 7.04167 11.9167Z" fill="white"/>
</svg>
